<svg width="118" height="119" viewBox="0 0 118 119" fill="none" xmlns="http://www.w3.org/2000/svg">
<circle cx="65.6947" cy="10.7934" r="2.83782" transform="rotate(7.96165 65.6947 10.7934)" stroke="#113436" stroke-width="1.6"/>
<circle cx="52.0385" cy="108.45" r="2.83782" transform="rotate(7.96165 52.0385 108.45)" stroke="#113436" stroke-width="1.6"/>
<circle cx="78.0996" cy="14.2279" r="2.83782" transform="rotate(22.9616 78.0996 14.2279)" stroke="#113436" stroke-width="1.6"/>
<circle cx="39.6328" cy="105.021" r="2.83782" transform="rotate(22.9616 39.6328 105.021)" stroke="#113436" stroke-width="1.6"/>
<circle cx="89.1968" cy="20.7448" r="2.83782" transform="rotate(37.9616 89.1968 20.7448)" stroke="#113436" stroke-width="1.6"/>
<circle cx="28.5347" cy="98.4987" r="2.83782" transform="rotate(37.9616 28.5347 98.4987)" stroke="#113436" stroke-width="1.6"/>
<circle cx="2.83782" cy="2.83782" r="2.83782" transform="matrix(0.602333 0.798245 -0.79822 0.602366 98.7754 25.9492)" stroke="#113436" stroke-width="1.6"/>
<circle cx="19.5008" cy="89.3262" r="2.83782" transform="rotate(52.9616 19.5008 89.3262)" stroke="#113436" stroke-width="1.6"/>
<circle cx="104.569" cy="41.1055" r="2.83782" transform="rotate(67.9616 104.569 41.1055)" stroke="#113436" stroke-width="1.6"/>
<circle cx="13.1648" cy="78.1094" r="2.83782" transform="rotate(67.9616 13.1648 78.1094)" stroke="#113436" stroke-width="1.6"/>
<circle cx="107.801" cy="53.5743" r="2.83782" transform="rotate(82.9616 107.801 53.5743)" stroke="#113436" stroke-width="1.6"/>
<circle cx="9.93559" cy="65.6603" r="2.83782" transform="rotate(82.9616 9.93559 65.6603)" stroke="#113436" stroke-width="1.6"/>
<circle cx="107.697" cy="66.4408" r="2.83782" transform="rotate(97.9616 107.697 66.4408)" stroke="#113436" stroke-width="1.6"/>
<circle cx="10.0328" cy="52.7885" r="2.83782" transform="rotate(97.9616 10.0328 52.7885)" stroke="#113436" stroke-width="1.6"/>
<circle cx="104.264" cy="78.8457" r="2.83782" transform="rotate(112.962 104.264 78.8457)" stroke="#113436" stroke-width="1.6"/>
<circle cx="13.4655" cy="40.377" r="2.83782" transform="rotate(112.962 13.4655 40.377)" stroke="#113436" stroke-width="1.6"/>
<circle cx="97.7396" cy="89.9449" r="2.83782" transform="rotate(127.962 97.7396 89.9449)" stroke="#113436" stroke-width="1.6"/>
<circle cx="19.9857" cy="29.2847" r="2.83782" transform="rotate(127.962 19.9857 29.2847)" stroke="#113436" stroke-width="1.6"/>
<circle cx="88.5606" cy="98.9519" r="2.83782" transform="rotate(142.962 88.5606 98.9519)" stroke="#113436" stroke-width="1.6"/>
<circle cx="29.168" cy="20.241" r="2.83782" transform="rotate(142.962 29.168 20.241)" stroke="#113436" stroke-width="1.6"/>
<circle cx="77.3633" cy="105.325" r="2.83782" transform="rotate(157.962 77.3633 105.325)" stroke="#113436" stroke-width="1.6"/>
<circle cx="40.3633" cy="13.9265" r="2.83782" transform="rotate(157.962 40.3633 13.9265)" stroke="#113436" stroke-width="1.6"/>
<circle cx="64.9101" cy="108.555" r="2.83782" transform="rotate(172.962 64.9101 108.555)" stroke="#113436" stroke-width="1.6"/>
<circle cx="52.8222" cy="10.6836" r="2.83782" transform="rotate(172.962 52.8222 10.6836)" stroke="#113436" stroke-width="1.6"/>
<circle cx="69.9443" cy="19.1918" r="2.41347" transform="rotate(15.3142 69.9443 19.1918)" stroke="#113436" stroke-width="1.6"/>
<circle cx="47.7978" cy="100.078" r="2.41347" transform="rotate(15.3142 47.7978 100.078)" stroke="#113436" stroke-width="1.6"/>
<circle cx="80.0333" cy="23.4306" r="2.41347" transform="rotate(30.3142 80.0333 23.4306)" stroke="#113436" stroke-width="1.6"/>
<circle cx="37.7012" cy="95.8329" r="2.41347" transform="rotate(30.3142 37.7012 95.8329)" stroke="#113436" stroke-width="1.6"/>
<circle cx="88.6825" cy="30.1358" r="2.41347" transform="rotate(45.3142 88.6825 30.1358)" stroke="#113436" stroke-width="1.6"/>
<circle cx="29.0536" cy="89.1201" r="2.41347" transform="rotate(45.3142 29.0536 89.1201)" stroke="#113436" stroke-width="1.6"/>
<circle cx="2.41347" cy="2.41347" r="2.41347" transform="matrix(0.495226 0.868764 -0.868744 0.495261 96.1875 35.5781)" stroke="#113436" stroke-width="1.6"/>
<circle cx="22.4267" cy="80.4053" r="2.41347" transform="rotate(60.3142 22.4267 80.4053)" stroke="#113436" stroke-width="1.6"/>
<circle cx="99.4315" cy="48.9777" r="2.41347" transform="rotate(75.3142 99.4315 48.9777)" stroke="#113436" stroke-width="1.6"/>
<circle cx="18.3046" cy="70.2395" r="2.41347" transform="rotate(75.3142 18.3046 70.2395)" stroke="#113436" stroke-width="1.6"/>
<circle cx="100.796" cy="59.865" r="2.41347" transform="rotate(90.3142 100.796 59.865)" stroke="#113436" stroke-width="1.6"/>
<circle cx="16.9288" cy="59.4119" r="2.41347" transform="rotate(90.3142 16.9288 59.4119)" stroke="#113436" stroke-width="1.6"/>
<circle cx="99.3102" cy="70.706" r="2.41347" transform="rotate(105.314 99.3102 70.706)" stroke="#113436" stroke-width="1.6"/>
<circle cx="18.4196" cy="48.5575" r="2.41347" transform="rotate(105.314 18.4196 48.5575)" stroke="#113436" stroke-width="1.6"/>
<circle cx="95.0558" cy="80.795" r="2.41347" transform="rotate(120.314 95.0558 80.795)" stroke="#113436" stroke-width="1.6"/>
<circle cx="22.6573" cy="38.4708" r="2.41347" transform="rotate(120.314 22.6573 38.4708)" stroke="#113436" stroke-width="1.6"/>
<circle cx="88.3545" cy="89.4422" r="2.41347" transform="rotate(135.314 88.3545 89.4422)" stroke="#113436" stroke-width="1.6"/>
<circle cx="29.3759" cy="29.8172" r="2.41347" transform="rotate(135.314 29.3759 29.8172)" stroke="#113436" stroke-width="1.6"/>
<circle cx="79.628" cy="96.0517" r="2.41347" transform="rotate(150.314 79.628 96.0517)" stroke="#113436" stroke-width="1.6"/>
<circle cx="38.0947" cy="23.2001" r="2.41347" transform="rotate(150.314 38.0947 23.2001)" stroke="#113436" stroke-width="1.6"/>
<circle cx="69.4969" cy="100.195" r="2.41347" transform="rotate(165.314 69.4969 100.195)" stroke="#113436" stroke-width="1.6"/>
<circle cx="48.2332" cy="19.0663" r="2.41347" transform="rotate(165.314 48.2332 19.0663)" stroke="#113436" stroke-width="1.6"/>
<circle cx="58.635" cy="101.562" r="2.41347" transform="rotate(-179.686 58.635 101.562)" stroke="#113436" stroke-width="1.6"/>
<circle cx="59.0939" cy="17.6866" r="2.41347" transform="rotate(-179.686 59.0939 17.6866)" stroke="#113436" stroke-width="1.6"/>
<circle cx="64.1033" cy="25.3267" r="1.99761" transform="rotate(8.6717 64.1033 25.3267)" stroke="#113436" stroke-width="1.6"/>
<circle cx="53.6404" cy="93.9478" r="1.99761" transform="rotate(8.6717 53.6404 93.9478)" stroke="#113436" stroke-width="1.6"/>
<circle cx="72.8048" cy="27.8503" r="1.99761" transform="rotate(23.6717 72.8048 27.8503)" stroke="#113436" stroke-width="1.6"/>
<circle cx="44.9357" cy="91.4284" r="1.99761" transform="rotate(23.6717 44.9357 91.4284)" stroke="#113436" stroke-width="1.6"/>
<circle cx="80.5575" cy="32.5344" r="1.99761" transform="rotate(38.6717 80.5575 32.5344)" stroke="#113436" stroke-width="1.6"/>
<circle cx="37.1805" cy="86.7336" r="1.99761" transform="rotate(38.6717 37.1805 86.7336)" stroke="#113436" stroke-width="1.6"/>
<circle cx="1.99761" cy="1.99761" r="1.99761" transform="matrix(0.592395 0.805648 -0.805624 0.592427 87.25 36.2773)" stroke="#113436" stroke-width="1.6"/>
<circle cx="30.9002" cy="80.1951" r="1.99761" transform="rotate(53.6717 30.9002 80.1951)" stroke="#113436" stroke-width="1.6"/>
<circle cx="91.2017" cy="46.9975" r="1.99761" transform="rotate(68.6717 91.2017 46.9975)" stroke="#113436" stroke-width="1.6"/>
<circle cx="26.5415" cy="72.2475" r="1.99761" transform="rotate(68.6717 26.5415 72.2475)" stroke="#113436" stroke-width="1.6"/>
<circle cx="93.3617" cy="55.8111" r="1.99761" transform="rotate(83.6717 93.3617 55.8111)" stroke="#113436" stroke-width="1.6"/>
<circle cx="24.3695" cy="63.4634" r="1.99761" transform="rotate(83.6717 24.3695 63.4634)" stroke="#113436" stroke-width="1.6"/>
<circle cx="93.1791" cy="64.8728" r="1.99761" transform="rotate(98.6717 93.1791 64.8728)" stroke="#113436" stroke-width="1.6"/>
<circle cx="24.5541" cy="54.4119" r="1.99761" transform="rotate(98.6717 24.5541 54.4119)" stroke="#113436" stroke-width="1.6"/>
<circle cx="90.6477" cy="73.5705" r="1.99761" transform="rotate(113.672 90.6477 73.5705)" stroke="#113436" stroke-width="1.6"/>
<circle cx="27.0755" cy="45.7033" r="1.99761" transform="rotate(113.672 27.0755 45.7033)" stroke="#113436" stroke-width="1.6"/>
<circle cx="85.9636" cy="81.3192" r="1.99761" transform="rotate(128.672 85.9636 81.3192)" stroke="#113436" stroke-width="1.6"/>
<circle cx="31.7664" cy="37.9442" r="1.99761" transform="rotate(128.672 31.7664 37.9442)" stroke="#113436" stroke-width="1.6"/>
<circle cx="79.426" cy="87.5858" r="1.99761" transform="rotate(143.672 79.426 87.5858)" stroke="#113436" stroke-width="1.6"/>
<circle cx="38.3049" cy="31.6639" r="1.99761" transform="rotate(143.672 38.3049 31.6639)" stroke="#113436" stroke-width="1.6"/>
<circle cx="71.4927" cy="91.9712" r="1.99761" transform="rotate(158.672 71.4927 91.9712)" stroke="#113436" stroke-width="1.6"/>
<circle cx="46.2447" cy="27.3072" r="1.99761" transform="rotate(158.672 46.2447 27.3072)" stroke="#113436" stroke-width="1.6"/>
<circle cx="62.6967" cy="94.1293" r="1.99761" transform="rotate(173.672 62.6967 94.1293)" stroke="#113436" stroke-width="1.6"/>
<circle cx="55.0424" cy="25.1332" r="1.99761" transform="rotate(173.672 55.0424 25.1332)" stroke="#113436" stroke-width="1.6"/>
</svg>
