<svg width="330" height="235" viewBox="0 0 330 235" fill="none" xmlns="http://www.w3.org/2000/svg">
<path d="M252.815 2H243.331M252.815 2L228.01 27.1308M252.815 2V11.6088M214.877 2H224.362M214.877 2H205.393M214.877 2H195.909M214.877 2L190.072 27.1308M195.909 2H205.393M195.909 2H186.424M195.909 2L176.94 21.2177M233.846 2H243.331M233.846 2H224.362M233.846 2L209.041 27.1308M243.331 2L218.525 27.1308M224.362 2L199.556 27.1308M205.393 2L180.587 27.1308M186.424 2H176.94L176.94 11.6088M186.424 2L176.94 11.6088M176.94 11.6088L176.94 21.2177M176.94 21.2177L176.94 27.1308H180.587M180.587 27.1308H190.072M190.072 27.1308H199.556M199.556 27.1308H209.041M209.041 27.1308H218.525M218.525 27.1308H227.098H228.01M237.494 27.1308H228.01M237.494 27.1308H247.343M237.494 27.1308L252.815 11.6088M247.343 27.1308H252.815V21.5872M247.343 27.1308L252.815 21.5872M252.815 11.6088V21.5872" stroke="#AEAEAE" stroke-width="3" stroke-linecap="round" stroke-linejoin="round"/>
<path d="M252.815 52.2636H247.343H237.494M214.877 27.1328H224.362M214.877 27.1328H205.393M214.877 27.1328H195.909M214.877 27.1328L190.072 52.2636M195.909 27.1328H205.393M195.909 27.1328H186.424M195.909 27.1328L176.94 46.3505M233.846 27.1328H243.331M233.846 27.1328H224.362M233.846 27.1328L209.041 52.2636M243.331 27.1328H252.815L228.01 52.2636M243.331 27.1328L218.525 52.2636M224.362 27.1328L199.556 52.2636M205.393 27.1328L180.587 52.2636M186.424 27.1328H176.94L176.94 36.7416M186.424 27.1328L176.94 36.7416M176.94 36.7416L176.94 46.3505M176.94 46.3505L176.94 52.2636H180.587M180.587 52.2636H190.072M190.072 52.2636H199.556M199.556 52.2636H209.041M209.041 52.2636H218.525M218.525 52.2636H227.098H228.01M237.494 52.2636H228.01M237.494 52.2636L261.993 27.1328" stroke="#AEAEAE" stroke-width="3" stroke-linecap="round" stroke-linejoin="round"/>
<path d="M252.815 52.2578H243.331M252.815 52.2578L228.01 78.1278M252.815 52.2578V62.1493M214.877 52.2578H224.362M214.877 52.2578H205.393M214.877 52.2578H195.909M214.877 52.2578L190.072 78.1278M195.909 52.2578H205.393M195.909 52.2578H186.424M195.909 52.2578L176.94 72.0407M233.846 52.2578H243.331M233.846 52.2578H224.362M233.846 52.2578L209.041 78.1278M243.331 52.2578L218.525 78.1278M224.362 52.2578L199.556 78.1278M205.393 52.2578L180.587 78.1278M186.424 52.2578H176.94L176.94 62.1493M186.424 52.2578L176.94 62.1493M176.94 62.1493L176.94 72.0407M176.94 72.0407L176.94 78.1278H180.587M180.587 78.1278H190.072M190.072 78.1278H199.556M199.556 78.1278H209.041M209.041 78.1278H218.525M218.525 78.1278H227.098H228.01M237.494 78.1278H228.01M237.494 78.1278H247.343M237.494 78.1278L252.815 62.1493M247.343 78.1278H252.815V72.4211M247.343 78.1278L252.815 72.4211M252.815 62.1493V72.4211" stroke="#AEAEAE" stroke-width="3" stroke-linecap="round" stroke-linejoin="round"/>
<path d="M327.932 2H318.542M327.932 2L303.375 27.1308M327.932 2V11.6088M290.374 2H299.763M290.374 2H280.984M290.374 2H271.594M290.374 2L265.816 27.1308M271.594 2H280.984M271.594 2H262.205M271.594 2L252.815 21.2177M309.153 2H318.542M309.153 2H299.763M309.153 2L284.595 27.1308M318.542 2L293.985 27.1308M299.763 2L275.206 27.1308M280.984 2L256.426 27.1308M262.205 2H252.815L252.815 11.6088M262.205 2L252.815 11.6088M252.815 11.6088L252.815 21.2177M252.815 21.2177L252.815 27.1308H256.426M256.426 27.1308H265.816M265.816 27.1308H275.206M275.206 27.1308H284.595M284.595 27.1308H293.985M293.985 27.1308H302.472H303.375M312.764 27.1308H303.375M312.764 27.1308H322.515M312.764 27.1308L327.932 11.6088M322.515 27.1308H327.932V21.5872M322.515 27.1308L327.932 21.5872M327.932 11.6088V21.5872" stroke="#AEAEAE" stroke-width="3" stroke-linecap="round" stroke-linejoin="round"/>
<path d="M252.815 27.1328H262.205H271.175M327.932 27.1328H318.542M327.932 27.1328L303.375 52.2636M327.932 27.1328V36.7416M290.374 27.1328H299.763M290.374 27.1328H280.984M290.374 27.1328H271.175M290.374 27.1328L265.816 52.2636M271.175 27.1328H280.984M271.175 27.1328L247.978 51.2919M309.153 27.1328H318.542M309.153 27.1328H299.763M309.153 27.1328L284.595 52.2636M318.542 27.1328L293.985 52.2636M299.763 27.1328L275.206 52.2636M280.984 27.1328L256.426 52.2636H265.816M265.816 52.2636H275.206M275.206 52.2636H284.595M284.595 52.2636H293.985M293.985 52.2636H302.472H303.375M312.764 52.2636H303.375M312.764 52.2636H322.515M312.764 52.2636L327.932 36.7416M322.515 52.2636H327.932V46.72M322.515 52.2636L327.932 46.72M327.932 36.7416V46.72" stroke="#AEAEAE" stroke-width="3" stroke-linecap="round" stroke-linejoin="round"/>
<path d="M327.932 52.2578H318.542M327.932 52.2578L303.375 78.1278M327.932 52.2578V62.1493M290.374 52.2578H299.763M290.374 52.2578H280.984M290.374 52.2578H271.594M290.374 52.2578L265.816 78.1278M271.594 52.2578H280.984M271.594 52.2578H262.205M271.594 52.2578L252.815 72.0407M309.153 52.2578H318.542M309.153 52.2578H299.763M309.153 52.2578L284.595 78.1278M318.542 52.2578L293.985 78.1278M299.763 52.2578L275.206 78.1278M280.984 52.2578L256.426 78.1278M262.205 52.2578H252.815L252.815 62.1493M262.205 52.2578L252.815 62.1493M252.815 62.1493L252.815 72.0407M252.815 72.0407L252.815 78.1278H256.426M256.426 78.1278H265.816M265.816 78.1278H275.206M275.206 78.1278H284.595M284.595 78.1278H293.985M293.985 78.1278H302.472H303.375M312.764 78.1278H303.375M312.764 78.1278H322.515M312.764 78.1278L327.932 62.1493M322.515 78.1278H327.932V72.4211M322.515 78.1278L327.932 72.4211M327.932 62.1493V72.4211" stroke="#AEAEAE" stroke-width="3" stroke-linecap="round" stroke-linejoin="round"/>
<path d="M128.016 78.7255L128.016 69.1348M128.016 78.7255L102.965 53.6422M128.016 78.7255L118.438 78.7255M128.016 40.3628L128.016 49.9534M128.016 40.3628L128.016 30.7721M128.016 40.3628L128.016 21.1814M128.016 40.3628L102.965 15.2794M128.016 21.1814L128.016 30.7721M128.016 21.1814L128.016 11.5907M128.016 21.1814L108.859 2M128.016 59.5441L128.016 69.1348M128.016 59.5441L128.016 49.9534M128.016 59.5441L102.965 34.4608M128.016 69.1348L102.965 44.0515M128.016 49.9534L102.965 24.8701M128.016 30.7721L102.965 5.68873M128.016 11.5907L128.016 2L118.438 2M128.016 11.5907L118.438 2M118.438 2L108.859 2M108.859 2L102.965 2L102.965 5.68873M102.965 5.68873L102.965 15.2794M102.965 15.2794L102.965 24.8701M102.965 24.8701L102.965 34.4608M102.965 34.4608L102.965 44.0515M102.965 44.0515L102.965 52.72L102.965 53.6422M102.965 63.2329L102.965 53.6422M102.965 63.2329L102.965 73.1924M102.965 63.2329L118.438 78.7255M102.965 73.1924L102.965 78.7255L108.491 78.7255M102.965 73.1924L108.491 78.7255M118.438 78.7255L108.491 78.7255" stroke="#E5C39C" stroke-width="3" stroke-linecap="round" stroke-linejoin="round"/>
<path d="M102.966 78.7255L102.966 69.1348M102.966 78.7255L77.9142 53.6422M102.966 78.7255L93.3872 78.7255M102.966 40.3628L102.966 49.9534M102.966 40.3628L102.966 30.7721M102.966 40.3628L102.966 21.1814M102.966 40.3628L77.9142 15.2794M102.966 21.1814L102.966 30.7721M102.966 21.1814L102.966 11.5907M102.966 21.1814L83.8087 2M102.966 59.5441L102.966 69.1348M102.966 59.5441L102.966 49.9534M102.966 59.5441L77.9142 34.4608M102.966 69.1348L77.9142 44.0515M102.966 49.9534L77.9142 24.8701M102.966 30.7721L77.9142 5.68873M102.966 11.5907L102.966 2L93.3872 2M102.966 11.5907L93.3872 2M93.3872 2L83.8087 2M83.8087 2L77.9142 2L77.9142 5.68873M77.9142 5.68873L77.9142 15.2794M77.9142 15.2794L77.9142 24.8701M77.9142 24.8701L77.9142 34.4608M77.9142 34.4608L77.9142 44.0515M77.9142 44.0515L77.9142 52.72L77.9142 53.6422M77.9142 63.2329L77.9142 53.6422M77.9142 63.2329L77.9142 73.1924M77.9142 63.2329L93.3872 78.7255M77.9142 73.1924L77.9142 78.7255L83.4403 78.7255M77.9142 73.1924L83.4403 78.7255M93.3872 78.7255L83.4403 78.7255" stroke="#E5C39C" stroke-width="3" stroke-linecap="round" stroke-linejoin="round"/>
<path d="M52.1035 78.7255L52.1035 69.1348M52.1035 78.7255L27.052 53.6422M52.1035 78.7255L42.525 78.7255M52.1035 40.3628L52.1035 49.9534M52.1035 40.3628L52.1035 30.7721M52.1035 40.3628L52.1035 21.1814M52.1035 40.3628L27.052 15.2794M52.1035 21.1814L52.1035 30.7721M52.1035 21.1814L52.1035 11.5907M52.1035 21.1814L32.9465 2M52.1035 59.5441L52.1035 69.1348M52.1035 59.5441L52.1035 49.9534M52.1035 59.5441L27.052 34.4608M52.1035 69.1348L27.052 44.0515M52.1035 49.9534L27.052 24.8701M52.1035 30.7721L27.052 5.68873M52.1035 11.5907L52.1035 2L42.525 2M52.1035 11.5907L42.525 2M42.525 2L32.9465 2M32.9465 2L27.052 2L27.052 5.68873M27.052 5.68873L27.052 15.2794M27.052 15.2794L27.052 24.8701M27.052 24.8701L27.052 34.4608M27.052 34.4608L27.052 44.0515M27.052 44.0515L27.052 52.72L27.052 53.6422M27.052 63.2329L27.052 53.6422M27.052 63.2329L27.052 73.1924M27.052 63.2329L42.525 78.7255M27.052 73.1924L27.052 78.7255L32.5781 78.7255M27.052 73.1924L32.5781 78.7255M42.525 78.7255L32.5781 78.7255" stroke="#E5C39C" stroke-width="3" stroke-linecap="round" stroke-linejoin="round"/>
<path d="M77.9137 78.7255L77.9137 69.1348M77.9137 78.7255L52.1031 53.6422M77.9137 78.7255L68.0449 78.7255M77.9137 40.3628L77.9137 49.9534M77.9137 40.3628L77.9137 30.7721M77.9137 40.3628L77.9137 21.1814M77.9137 40.3628L52.1031 15.2794M77.9137 21.1814L77.9137 30.7721M77.9137 21.1814L77.9137 11.5907M77.9137 21.1814L58.1762 2M77.9137 59.5441L77.9137 69.1348M77.9137 59.5441L77.9137 49.9534M77.9137 59.5441L52.1031 34.4608M77.9137 69.1348L52.1031 44.0515M77.9137 49.9534L52.1031 24.8701M77.9137 30.7721L52.1031 5.68873M77.9137 11.5907L77.9137 2L68.0449 2M77.9137 11.5907L68.0449 2M68.0449 2L58.1762 2M58.1762 2L52.1031 2L52.1031 5.68873M52.1031 5.68873L52.1031 15.2794M52.1031 15.2794L52.1031 24.8701M52.1031 24.8701L52.1031 34.4608M52.1031 34.4608L52.1031 44.0515M52.1031 44.0515L52.1031 52.72L52.1031 53.6422M52.1031 63.2329L52.1031 53.6422M52.1031 63.2329L52.1031 73.1924M52.1031 63.2329L68.0449 78.7255M52.1031 73.1924L52.1031 78.7255L57.7966 78.7255M52.1031 73.1924L57.7966 78.7255M68.0449 78.7255L57.7966 78.7255" stroke="#E5C39C" stroke-width="3" stroke-linecap="round" stroke-linejoin="round"/>
<path d="M27.0515 78.7255L27.0515 69.1348M27.0515 78.7255L2.00001 53.6422M27.0515 78.7255L17.473 78.7255M27.0515 40.3628L27.0515 49.9534M27.0515 40.3628L27.0515 30.7721M27.0515 40.3628L27.0515 21.1814M27.0515 40.3628L2.00001 15.2794M27.0515 21.1814L27.0515 30.7721M27.0515 21.1814L27.0515 11.5907M27.0515 21.1814L7.89448 2M27.0515 59.5441L27.0515 69.1348M27.0515 59.5441L27.0515 49.9534M27.0515 59.5441L2.00001 34.4608M27.0515 69.1348L2.00001 44.0515M27.0515 49.9534L2.00001 24.8701M27.0515 30.7721L2.00001 5.68873M27.0515 11.5907L27.0515 2L17.473 2M27.0515 11.5907L17.473 2M17.473 2L7.89448 2M7.89448 2L2.00001 2L2.00001 5.68873M2.00001 5.68873L2.00001 15.2794M2.00001 15.2794L2.00001 24.8701M2.00001 24.8701L2.00001 34.4608M2.00001 34.4608L2.00001 44.0515M2.00001 44.0515L2.00001 52.72L2.00001 53.6422M2.00001 63.2329L2.00001 53.6422M2.00001 63.2329L2.00001 73.1924M2.00001 63.2329L17.473 78.7255M2.00001 73.1924L2.00001 78.7255L7.52608 78.7255M2.00001 73.1924L7.52608 78.7255M17.473 78.7255L7.52608 78.7255" stroke="#E5C39C" stroke-width="3" stroke-linecap="round" stroke-linejoin="round"/>
<path d="M153.07 78.7255L153.07 69.1348M153.07 78.7255L128.019 53.6422M153.07 78.7255L143.492 78.7255M153.07 40.3628L153.07 49.9534M153.07 40.3628L153.07 30.7721M153.07 40.3628L153.07 21.1814M153.07 40.3628L128.019 15.2794M153.07 21.1814L153.07 30.7721M153.07 21.1814L153.07 11.5907M153.07 21.1814L133.913 2M153.07 59.5441L153.07 69.1348M153.07 59.5441L153.07 49.9534M153.07 59.5441L128.019 34.4608M153.07 69.1348L128.019 44.0515M153.07 49.9534L128.019 24.8701M153.07 30.7721L128.019 5.68873M153.07 11.5907L153.07 2L143.492 2M153.07 11.5907L143.492 2M143.492 2L133.913 2M133.913 2L128.019 2L128.019 5.68873M128.019 5.68873L128.019 15.2794M128.019 15.2794L128.019 24.8701M128.019 24.8701L128.019 34.4608M128.019 34.4608L128.019 44.0515M128.019 44.0515L128.019 52.72L128.019 53.6422M128.019 63.2329L128.019 53.6422M128.019 63.2329L128.019 73.1924M128.019 63.2329L143.492 78.7255M128.019 73.1924L128.019 78.7255L133.545 78.7255M128.019 73.1924L133.545 78.7255M143.492 78.7255L133.545 78.7255" stroke="#E5C39C" stroke-width="3" stroke-linecap="round" stroke-linejoin="round"/>
<path d="M252.804 207.723H243.373M252.804 207.723L228.138 232.873M252.804 207.723V217.339M215.079 207.723H224.51M215.079 207.723H205.648M215.079 207.723H196.217M215.079 207.723L190.413 232.873M196.217 207.723H205.648M196.217 207.723H186.785M196.217 207.723L177.354 226.955M233.941 207.723H243.373M233.941 207.723H224.51M233.941 207.723L209.275 232.873M243.373 207.723L218.706 232.873M224.51 207.723L199.844 232.873M205.648 207.723L180.982 232.873M186.785 207.723H177.354L177.354 217.339M186.785 207.723L177.354 217.339M177.354 217.339L177.354 226.955M177.354 226.955L177.354 232.873H180.982M180.982 232.873H190.413M190.413 232.873H199.844M199.844 232.873H209.275M209.275 232.873H218.706M218.706 232.873H227.231H228.138M237.569 232.873H228.138M237.569 232.873H247.363M237.569 232.873L252.804 217.339M247.363 232.873H252.804V227.325M247.363 232.873L252.804 227.325M252.804 217.339V227.325" stroke="#AEAEAE" stroke-width="3" stroke-linecap="round" stroke-linejoin="round"/>
<path d="M252.804 106.383H243.373M252.804 106.383L228.138 131.533M252.804 106.383V115.999M215.079 106.383H224.51M215.079 106.383H205.648M215.079 106.383H196.217M215.079 106.383L190.413 131.533M196.217 106.383H205.648M196.217 106.383H186.785M196.217 106.383L177.354 125.615M233.941 106.383H243.373M233.941 106.383H224.51M233.941 106.383L209.275 131.533M243.373 106.383L218.706 131.533M224.51 106.383L199.844 131.533M205.648 106.383L180.982 131.533M186.785 106.383H177.354L177.354 115.999M186.785 106.383L177.354 115.999M177.354 115.999L177.354 125.615M177.354 125.615L177.354 131.533H180.982M180.982 131.533H190.413M190.413 131.533H199.844M199.844 131.533H209.275M209.275 131.533H218.706M218.706 131.533H227.231H228.138M237.569 131.533H228.138M237.569 131.533H247.363M237.569 131.533L252.804 115.999M247.363 131.533H252.804V125.985M247.363 131.533L252.804 125.985M252.804 115.999V125.985" stroke="#AEAEAE" stroke-width="3" stroke-linecap="round" stroke-linejoin="round"/>
<path d="M328.254 207.723H318.822M328.254 207.723L303.587 232.873M328.254 207.723V217.339M290.529 207.723H299.96M290.529 207.723H281.097M290.529 207.723H271.666M290.529 207.723L265.862 232.873M271.666 207.723H281.097M271.666 207.723H262.235M271.666 207.723L252.804 226.955M309.391 207.723H318.822M309.391 207.723H299.96M309.391 207.723L284.725 232.873M318.822 207.723L294.156 232.873M299.96 207.723L275.294 232.873M281.097 207.723L256.431 232.873M262.235 207.723H252.804L252.804 217.339M262.235 207.723L252.804 217.339M252.804 217.339L252.804 226.955M252.804 226.955L252.804 232.873H256.431M256.431 232.873H265.862M265.862 232.873H275.294M275.294 232.873H284.725M284.725 232.873H294.156M294.156 232.873H302.68H303.587M313.019 232.873H303.587M313.019 232.873H322.812M313.019 232.873L328.254 217.339M322.812 232.873H328.254V227.325M322.812 232.873L328.254 227.325M328.254 217.339V227.325" stroke="#AEAEAE" stroke-width="3" stroke-linecap="round" stroke-linejoin="round"/>
<path d="M328.254 106.383H318.822M328.254 106.383L303.587 131.533M328.254 106.383V115.999M290.529 106.383H299.96M290.529 106.383H281.097M290.529 106.383H271.666M290.529 106.383L265.862 131.533M271.666 106.383H281.097M271.666 106.383H262.235M271.666 106.383L252.804 125.615M309.391 106.383H318.822M309.391 106.383H299.96M309.391 106.383L284.725 131.533M318.822 106.383L294.156 131.533M299.96 106.383L275.294 131.533M281.097 106.383L256.431 131.533M262.235 106.383H252.804L252.804 115.999M262.235 106.383L252.804 115.999M252.804 115.999L252.804 125.615M252.804 125.615L252.804 131.533H256.431M256.431 131.533H265.862M265.862 131.533H275.294M275.294 131.533H284.725M284.725 131.533H294.156M294.156 131.533H302.68H303.587M313.019 131.533H303.587M313.019 131.533H322.812M313.019 131.533L328.254 115.999M322.812 131.533H328.254V125.985M322.812 131.533L328.254 125.985M328.254 115.999V125.985" stroke="#AEAEAE" stroke-width="3" stroke-linecap="round" stroke-linejoin="round"/>
<path d="M202.505 207.721L202.505 198.197M202.505 207.721L177.355 182.813M202.505 207.721L192.889 207.721M202.505 169.626L202.505 179.15M202.505 169.626L202.505 160.102M202.505 169.626L202.505 150.579M202.505 169.626L177.355 144.718M202.505 150.579L202.505 160.102M202.505 150.579L202.505 141.055M202.505 150.579L183.273 131.531M202.505 188.673L202.505 198.197M202.505 188.673L202.505 179.15M202.505 188.673L177.355 163.765M202.505 198.197L177.355 173.289M202.505 179.15L177.355 154.242M202.505 160.102L177.355 135.194M202.505 141.055L202.505 131.531L192.889 131.531M202.505 141.055L192.889 131.531M192.889 131.531L183.273 131.531M183.273 131.531L177.355 131.531L177.355 135.194M177.355 135.194L177.355 144.718M177.355 144.718L177.355 154.242M177.355 154.242L177.355 163.765M177.355 163.765L177.355 173.289M177.355 173.289L177.355 181.897L177.355 182.813M177.355 192.336L177.355 182.813M177.355 192.336L177.355 202.226M177.355 192.336L192.889 207.721M177.355 202.226L177.355 207.721L182.903 207.721M177.355 202.226L182.903 207.721M192.889 207.721L182.903 207.721" stroke="#E5C39C" stroke-width="3" stroke-linecap="round" stroke-linejoin="round"/>
<path d="M277.954 207.721L277.954 198.197M277.954 207.721L252.804 182.813M277.954 207.721L268.338 207.721M277.954 169.626L277.954 179.15M277.954 169.626L277.954 160.102M277.954 169.626L277.954 150.579M277.954 169.626L252.804 144.718M277.954 150.579L277.954 160.102M277.954 150.579L277.954 141.055M277.954 150.579L258.722 131.531M277.954 188.673L277.954 198.197M277.954 188.673L277.954 179.15M277.954 188.673L252.804 163.765M277.954 198.197L252.804 173.289M277.954 179.15L252.804 154.242M277.954 160.102L252.804 135.194M277.954 141.055L277.954 131.531L268.338 131.531M277.954 141.055L268.338 131.531M268.338 131.531L258.722 131.531M258.722 131.531L252.804 131.531L252.804 135.194M252.804 135.194L252.804 144.718M252.804 144.718L252.804 154.242M252.804 154.242L252.804 163.765M252.804 163.765L252.804 173.289M252.804 173.289L252.804 181.897L252.804 182.813M252.804 192.336L252.804 182.813M252.804 192.336L252.804 202.226M252.804 192.336L268.338 207.721M252.804 202.226L252.804 207.721L258.352 207.721M252.804 202.226L258.352 207.721M268.338 207.721L258.352 207.721" stroke="#E5C39C" stroke-width="3" stroke-linecap="round" stroke-linejoin="round"/>
<path d="M227.653 207.721L227.653 198.197M227.653 207.721L202.503 182.813M227.653 207.721L218.037 207.721M227.653 169.626L227.653 179.15M227.653 169.626L227.653 160.102M227.653 169.626L227.653 150.579M227.653 169.626L202.503 144.718M227.653 150.579L227.653 160.102M227.653 150.579L227.653 141.055M227.653 150.579L208.421 131.531M227.653 188.673L227.653 198.197M227.653 188.673L227.653 179.15M227.653 188.673L202.503 163.765M227.653 198.197L202.503 173.289M227.653 179.15L202.503 154.242M227.653 160.102L202.503 135.194M227.653 141.055L227.653 131.531L218.037 131.531M227.653 141.055L218.037 131.531M218.037 131.531L208.421 131.531M208.421 131.531L202.503 131.531L202.503 135.194M202.503 135.194L202.503 144.718M202.503 144.718L202.503 154.242M202.503 154.242L202.503 163.765M202.503 163.765L202.503 173.289M202.503 173.289L202.503 181.897L202.503 182.813M202.503 192.336L202.503 182.813M202.503 192.336L202.503 202.226M202.503 192.336L218.037 207.721M202.503 202.226L202.503 207.721L208.051 207.721M202.503 202.226L208.051 207.721M218.037 207.721L208.051 207.721" stroke="#E5C39C" stroke-width="3" stroke-linecap="round" stroke-linejoin="round"/>
<path d="M303.104 207.721L303.104 198.197M303.104 207.721L277.954 182.813M303.104 207.721L293.488 207.721M303.104 169.626L303.104 179.15M303.104 169.626L303.104 160.102M303.104 169.626L303.104 150.579M303.104 169.626L277.954 144.718M303.104 150.579L303.104 160.102M303.104 150.579L303.104 141.055M303.104 150.579L283.872 131.531M303.104 188.673L303.104 198.197M303.104 188.673L303.104 179.15M303.104 188.673L277.954 163.765M303.104 198.197L277.954 173.289M303.104 179.15L277.954 154.242M303.104 160.102L277.954 135.194M303.104 141.055L303.104 131.531L293.488 131.531M303.104 141.055L293.488 131.531M293.488 131.531L283.872 131.531M283.872 131.531L277.954 131.531L277.954 135.194M277.954 135.194L277.954 144.718M277.954 144.718L277.954 154.242M277.954 154.242L277.954 163.765M277.954 163.765L277.954 173.289M277.954 173.289L277.954 181.897L277.954 182.813M277.954 192.336L277.954 182.813M277.954 192.336L277.954 202.226M277.954 192.336L293.488 207.721M277.954 202.226L277.954 207.721L283.502 207.721M277.954 202.226L283.502 207.721M293.488 207.721L283.502 207.721" stroke="#E5C39C" stroke-width="3" stroke-linecap="round" stroke-linejoin="round"/>
<path d="M252.804 207.721L252.804 198.197M252.804 207.721L227.654 182.813M252.804 207.721L243.188 207.721M252.804 169.626L252.804 179.15M252.804 169.626L252.804 160.102M252.804 169.626L252.804 150.579M252.804 169.626L227.654 144.718M252.804 150.579L252.804 160.102M252.804 150.579L252.804 141.055M252.804 150.579L233.572 131.531M252.804 188.673L252.804 198.197M252.804 188.673L252.804 179.15M252.804 188.673L227.654 163.765M252.804 198.197L227.654 173.289M252.804 179.15L227.654 154.242M252.804 160.102L227.654 135.194M252.804 141.055L252.804 131.531L243.188 131.531M252.804 141.055L243.188 131.531M243.188 131.531L233.572 131.531M233.572 131.531L227.654 131.531L227.654 135.194M227.654 135.194L227.654 144.718M227.654 144.718L227.654 154.242M227.654 154.242L227.654 163.765M227.654 163.765L227.654 173.289M227.654 173.289L227.654 181.897L227.654 182.813M227.654 192.336L227.654 182.813M227.654 192.336L227.654 202.226M227.654 192.336L243.188 207.721M227.654 202.226L227.654 207.721L233.202 207.721M227.654 202.226L233.202 207.721M243.188 207.721L233.202 207.721" stroke="#E5C39C" stroke-width="3" stroke-linecap="round" stroke-linejoin="round"/>
<path d="M328.255 207.721L328.255 198.197M328.255 207.721L303.105 182.813M328.255 207.721L318.638 207.721M328.255 169.626L328.255 179.15M328.255 169.626L328.255 160.102M328.255 169.626L328.255 150.579M328.255 169.626L303.105 144.718M328.255 150.579L328.255 160.102M328.255 150.579L328.255 141.055M328.255 150.579L309.022 131.531M328.255 188.673L328.255 198.197M328.255 188.673L328.255 179.15M328.255 188.673L303.105 163.765M328.255 198.197L303.105 173.289M328.255 179.15L303.105 154.242M328.255 160.102L303.105 135.194M328.255 141.055L328.255 131.531L318.639 131.531M328.255 141.055L318.639 131.531M318.639 131.531L309.022 131.531M309.022 131.531L303.105 131.531L303.105 135.194M303.105 135.194L303.105 144.718M303.105 144.718L303.105 154.242M303.105 154.242L303.105 163.765M303.105 163.765L303.105 173.289M303.105 173.289L303.105 181.897L303.105 182.813M303.105 192.336L303.105 182.813M303.105 192.336L303.105 202.226M303.105 192.336L318.638 207.721M303.105 202.226L303.105 207.721L308.653 207.721M303.105 202.226L308.653 207.721M318.638 207.721L308.653 207.721" stroke="#E5C39C" stroke-width="3" stroke-linecap="round" stroke-linejoin="round"/>
</svg>
