<svg width="385" height="273" viewBox="0 0 385 273" fill="none" xmlns="http://www.w3.org/2000/svg">
<path d="M304.504 2H294.691M304.504 2L278.84 28.0014M304.504 2V11.9417M265.252 2H275.065M265.252 2H255.439M265.252 2H245.626M265.252 2L239.587 28.0014M245.626 2H255.439M245.626 2H235.813M245.626 2L226 21.8835M284.878 2H294.691M284.878 2H275.065M284.878 2L259.213 28.0014M294.691 2L269.026 28.0014M275.065 2L249.4 28.0014M255.439 2L229.774 28.0014M235.813 2H226L226 11.9417M235.813 2L226 11.9417M226 11.9417L226 21.8835M226 21.8835L226 28.0014H229.774M229.774 28.0014H239.587M239.587 28.0014H249.4M249.4 28.0014H259.213M259.213 28.0014H269.026M269.026 28.0014H277.896H278.84M288.653 28.0014H278.84M288.653 28.0014H298.843M288.653 28.0014L304.504 11.9417M298.843 28.0014H304.504V22.2658M298.843 28.0014L304.504 22.2658M304.504 11.9417V22.2658" stroke="#AEAEAE" stroke-width="4" stroke-linecap="round" stroke-linejoin="round"/>
<path d="M304.504 54.0054H298.843H288.653M265.252 28.0039H275.065M265.252 28.0039H255.439M265.252 28.0039H245.626M265.252 28.0039L239.587 54.0054M245.626 28.0039H255.439M245.626 28.0039H235.813M245.626 28.0039L226 47.8874M284.878 28.0039H294.691M284.878 28.0039H275.065M284.878 28.0039L259.213 54.0054M294.691 28.0039H304.504L278.84 54.0054M294.691 28.0039L269.026 54.0054M275.065 28.0039L249.4 54.0054M255.439 28.0039L229.774 54.0054M235.813 28.0039H226L226 37.9456M235.813 28.0039L226 37.9456M226 37.9456L226 47.8874M226 47.8874L226 54.0054H229.774M229.774 54.0054H239.587M239.587 54.0054H249.4M249.4 54.0054H259.213M259.213 54.0054H269.026M269.026 54.0054H277.896H278.84M288.653 54.0054H278.84M288.653 54.0054L314 28.0039" stroke="#AEAEAE" stroke-width="4" stroke-linecap="round" stroke-linejoin="round"/>
<path d="M304.504 54H294.691M304.504 54L278.84 80.7662M304.504 54V64.2341M265.252 54H275.065M265.252 54H255.439M265.252 54H245.626M265.252 54L239.587 80.7662M245.626 54H255.439M245.626 54H235.813M245.626 54L226 74.4683M284.878 54H294.691M284.878 54H275.065M284.878 54L259.213 80.7662M294.691 54L269.026 80.7662M275.065 54L249.4 80.7662M255.439 54L229.774 80.7662M235.813 54H226L226 64.2341M235.813 54L226 64.2341M226 64.2341L226 74.4683M226 74.4683L226 80.7662H229.774M229.774 80.7662H239.587M239.587 80.7662H249.4M249.4 80.7662H259.213M259.213 80.7662H269.026M269.026 80.7662H277.896H278.84M288.653 80.7662H278.84M288.653 80.7662H298.843M288.653 80.7662L304.504 64.2341M298.843 80.7662H304.504V74.8619M298.843 80.7662L304.504 74.8619M304.504 64.2341V74.8619" stroke="#AEAEAE" stroke-width="4" stroke-linecap="round" stroke-linejoin="round"/>
<path d="M382.224 2H372.509M382.224 2L356.815 28.0014M382.224 2V11.9417M343.364 2H353.079M343.364 2H333.649M343.364 2H323.934M343.364 2L317.956 28.0014M323.934 2H333.649M323.934 2H314.219M323.934 2L304.504 21.8835M362.794 2H372.509M362.794 2H353.079M362.794 2L337.386 28.0014M372.509 2L347.1 28.0014M353.079 2L327.671 28.0014M333.649 2L308.241 28.0014M314.219 2H304.504L304.504 11.9417M314.219 2L304.504 11.9417M304.504 11.9417L304.504 21.8835M304.504 21.8835L304.504 28.0014H308.241M308.241 28.0014H317.956M317.956 28.0014H327.671M327.671 28.0014H337.386M337.386 28.0014H347.1M347.1 28.0014H355.881H356.815M366.53 28.0014H356.815M366.53 28.0014H376.619M366.53 28.0014L382.224 11.9417M376.619 28.0014H382.224V22.2658M376.619 28.0014L382.224 22.2658M382.224 11.9417V22.2658" stroke="#AEAEAE" stroke-width="4" stroke-linecap="round" stroke-linejoin="round"/>
<path d="M304.504 28.0039H314.219H323.5M382.224 28.0039H372.509M382.224 28.0039L356.815 54.0054M382.224 28.0039V37.9456M343.364 28.0039H353.079M343.364 28.0039H333.649M343.364 28.0039H323.5M343.364 28.0039L317.956 54.0054M323.5 28.0039H333.649M323.5 28.0039L299.5 53M362.794 28.0039H372.509M362.794 28.0039H353.079M362.794 28.0039L337.386 54.0054M372.509 28.0039L347.1 54.0054M353.079 28.0039L327.671 54.0054M333.649 28.0039L308.241 54.0054H317.956M317.956 54.0054H327.671M327.671 54.0054H337.386M337.386 54.0054H347.1M347.1 54.0054H355.881H356.815M366.53 54.0054H356.815M366.53 54.0054H376.619M366.53 54.0054L382.224 37.9456M376.619 54.0054H382.224V48.2697M376.619 54.0054L382.224 48.2697M382.224 37.9456V48.2697" stroke="#AEAEAE" stroke-width="4" stroke-linecap="round" stroke-linejoin="round"/>
<path d="M382.224 54H372.509M382.224 54L356.815 80.7662M382.224 54V64.2341M343.364 54H353.079M343.364 54H333.649M343.364 54H323.934M343.364 54L317.956 80.7662M323.934 54H333.649M323.934 54H314.219M323.934 54L304.504 74.4683M362.794 54H372.509M362.794 54H353.079M362.794 54L337.386 80.7662M372.509 54L347.1 80.7662M353.079 54L327.671 80.7662M333.649 54L308.241 80.7662M314.219 54H304.504L304.504 64.2341M314.219 54L304.504 64.2341M304.504 64.2341L304.504 74.4683M304.504 74.4683L304.504 80.7662H308.241M308.241 80.7662H317.956M317.956 80.7662H327.671M327.671 80.7662H337.386M337.386 80.7662H347.1M347.1 80.7662H355.881H356.815M366.53 80.7662H356.815M366.53 80.7662H376.619M366.53 80.7662L382.224 64.2341M376.619 80.7662H382.224V74.8619M376.619 80.7662L382.224 74.8619M382.224 64.2341V74.8619" stroke="#AEAEAE" stroke-width="4" stroke-linecap="round" stroke-linejoin="round"/>
<path d="M132.382 81.3836L132.382 71.4607M132.382 81.3836L106.463 55.4313M132.382 81.3836L122.472 81.3836M132.382 41.6918L132.382 51.6148M132.382 41.6918L132.382 31.7689M132.382 41.6918L132.382 21.8459M132.382 41.6918L106.463 15.7395M132.382 21.8459L132.382 31.7689M132.382 21.8459L132.382 11.923M132.382 21.8459L112.562 2M132.382 61.5377L132.382 71.4607M132.382 61.5377L132.382 51.6148M132.382 61.5377L106.463 35.5854M132.382 71.4607L106.463 45.5083M132.382 51.6148L106.463 25.6624M132.382 31.7689L106.463 5.81652M132.382 11.923L132.382 2L122.472 2M132.382 11.923L122.472 2M122.472 2L112.562 2M112.562 2L106.463 2L106.463 5.81652M106.463 5.81652L106.463 15.7395M106.463 15.7395L106.463 25.6624M106.463 25.6624L106.463 35.5854M106.463 35.5854L106.463 45.5083M106.463 45.5083L106.463 54.4772L106.463 55.4313M106.463 65.3543L106.463 55.4313M106.463 65.3543L106.463 75.6589M106.463 65.3543L122.472 81.3836M106.463 75.6589L106.463 81.3836L112.18 81.3836M106.463 75.6589L112.18 81.3836M122.472 81.3836L112.18 81.3836" stroke="#E5C39C" stroke-width="4" stroke-linecap="round" stroke-linejoin="round"/>
<path d="M106.464 81.3836L106.464 71.4607M106.464 81.3836L80.5446 55.4313M106.464 81.3836L96.5536 81.3836M106.464 41.6918L106.464 51.6148M106.464 41.6918L106.464 31.7689M106.464 41.6918L106.464 21.8459M106.464 41.6918L80.5446 15.7395M106.464 21.8459L106.464 31.7689M106.464 21.8459L106.464 11.923M106.464 21.8459L86.6433 2M106.464 61.5377L106.464 71.4607M106.464 61.5377L106.464 51.6148M106.464 61.5377L80.5446 35.5854M106.464 71.4607L80.5446 45.5083M106.464 51.6148L80.5446 25.6624M106.464 31.7689L80.5446 5.81652M106.464 11.923L106.464 2L96.5536 2M106.464 11.923L96.5536 2M96.5536 2L86.6433 2M86.6433 2L80.5446 2L80.5446 5.81652M80.5446 5.81652L80.5446 15.7395M80.5446 15.7395L80.5446 25.6624M80.5446 25.6624L80.5446 35.5854M80.5446 35.5854L80.5446 45.5083M80.5446 45.5083L80.5446 54.4772L80.5446 55.4313M80.5446 65.3543L80.5446 55.4313M80.5446 65.3543L80.5446 75.6589M80.5446 65.3543L96.5536 81.3836M80.5446 75.6589L80.5446 81.3836L86.2621 81.3836M80.5446 75.6589L86.2621 81.3836M96.5536 81.3836L86.2621 81.3836" stroke="#E5C39C" stroke-width="4" stroke-linecap="round" stroke-linejoin="round"/>
<path d="M53.8395 81.3836L53.8395 71.4607M53.8395 81.3836L27.9201 55.4313M53.8395 81.3836L43.9291 81.3836M53.8395 41.6918L53.8395 51.6148M53.8395 41.6918L53.8395 31.7689M53.8395 41.6918L53.8395 21.8459M53.8395 41.6918L27.9201 15.7395M53.8395 21.8459L53.8395 31.7689M53.8395 21.8459L53.8395 11.923M53.8395 21.8459L34.0188 2M53.8395 61.5377L53.8395 71.4607M53.8395 61.5377L53.8395 51.6148M53.8395 61.5377L27.9201 35.5854M53.8395 71.4607L27.9201 45.5083M53.8395 51.6148L27.9201 25.6624M53.8395 31.7689L27.9201 5.81652M53.8395 11.923L53.8395 2L43.9291 2M53.8395 11.923L43.9291 2M43.9291 2L34.0188 2M34.0188 2L27.9201 2L27.9201 5.81652M27.9201 5.81652L27.9201 15.7395M27.9201 15.7395L27.9201 25.6624M27.9201 25.6624L27.9201 35.5854M27.9201 35.5854L27.9201 45.5083M27.9201 45.5083L27.9201 54.4772L27.9201 55.4313M27.9201 65.3543L27.9201 55.4313M27.9201 65.3543L27.9201 75.6589M27.9201 65.3543L43.9291 81.3836M27.9201 75.6589L27.9201 81.3836L33.6376 81.3836M27.9201 75.6589L33.6376 81.3836M43.9291 81.3836L33.6376 81.3836" stroke="#E5C39C" stroke-width="4" stroke-linecap="round" stroke-linejoin="round"/>
<path d="M80.5438 81.3836L80.5438 71.4607M80.5438 81.3836L53.839 55.4313M80.5438 81.3836L70.3331 81.3836M80.5438 41.6918L80.5438 51.6148M80.5438 41.6918L80.5438 31.7689M80.5438 41.6918L80.5438 21.8459M80.5438 41.6918L53.839 15.7395M80.5438 21.8459L80.5438 31.7689M80.5438 21.8459L80.5438 11.923M80.5438 21.8459L60.1225 2M80.5438 61.5377L80.5438 71.4607M80.5438 61.5377L80.5438 51.6148M80.5438 61.5377L53.839 35.5854M80.5438 71.4607L53.839 45.5083M80.5438 51.6148L53.839 25.6624M80.5438 31.7689L53.839 5.81652M80.5438 11.923L80.5438 2L70.3331 2M80.5438 11.923L70.3331 2M70.3331 2L60.1225 2M60.1225 2L53.839 2L53.839 5.81652M53.839 5.81652L53.839 15.7395M53.839 15.7395L53.839 25.6624M53.839 25.6624L53.839 35.5854M53.839 35.5854L53.839 45.5083M53.839 45.5083L53.839 54.4772L53.839 55.4313M53.839 65.3543L53.839 55.4313M53.839 65.3543L53.839 75.6589M53.839 65.3543L70.3331 81.3836M53.839 75.6589L53.839 81.3836L59.7298 81.3836M53.839 75.6589L59.7298 81.3836M70.3331 81.3836L59.7298 81.3836" stroke="#E5C39C" stroke-width="4" stroke-linecap="round" stroke-linejoin="round"/>
<path d="M27.9194 81.3836L27.9194 71.4607M27.9194 81.3836L2.00003 55.4313M27.9194 81.3836L18.0091 81.3836M27.9194 41.6918L27.9194 51.6148M27.9194 41.6918L27.9194 31.7689M27.9194 41.6918L27.9194 21.8459M27.9194 41.6918L2.00003 15.7395M27.9194 21.8459L27.9194 31.7689M27.9194 21.8459L27.9194 11.923M27.9194 21.8459L8.09871 2M27.9194 61.5377L27.9194 71.4607M27.9194 61.5377L27.9194 51.6148M27.9194 61.5377L2.00003 35.5854M27.9194 71.4607L2.00003 45.5083M27.9194 51.6148L2.00003 25.6624M27.9194 31.7689L2.00003 5.81652M27.9194 11.923L27.9194 2L18.0091 2M27.9194 11.923L18.0091 2M18.0091 2L8.09871 2M8.09871 2L2.00003 2L2.00003 5.81652M2.00003 5.81652L2.00003 15.7395M2.00003 15.7395L2.00003 25.6624M2.00003 25.6624L2.00003 35.5854M2.00003 35.5854L2.00003 45.5083M2.00003 45.5083L2.00003 54.4772L2.00003 55.4313M2.00003 65.3543L2.00003 55.4313M2.00003 65.3543L2.00003 75.6589M2.00003 65.3543L18.0091 81.3836M2.00003 75.6589L2.00003 81.3836L7.71754 81.3836M2.00003 75.6589L7.71754 81.3836M18.0091 81.3836L7.71754 81.3836" stroke="#E5C39C" stroke-width="4" stroke-linecap="round" stroke-linejoin="round"/>
<path d="M158.304 81.3836L158.304 71.4607M158.304 81.3836L132.385 55.4313M158.304 81.3836L148.394 81.3836M158.304 41.6918L158.304 51.6148M158.304 41.6918L158.304 31.7689M158.304 41.6918L158.304 21.8459M158.304 41.6918L132.385 15.7395M158.304 21.8459L158.304 31.7689M158.304 21.8459L158.304 11.923M158.304 21.8459L138.483 2M158.304 61.5377L158.304 71.4607M158.304 61.5377L158.304 51.6148M158.304 61.5377L132.385 35.5854M158.304 71.4607L132.385 45.5083M158.304 51.6148L132.385 25.6624M158.304 31.7689L132.385 5.81652M158.304 11.923L158.304 2L148.394 2M158.304 11.923L148.394 2M148.394 2L138.483 2M138.483 2L132.385 2L132.385 5.81652M132.385 5.81652L132.385 15.7395M132.385 15.7395L132.385 25.6624M132.385 25.6624L132.385 35.5854M132.385 35.5854L132.385 45.5083M132.385 45.5083L132.385 54.4772L132.385 55.4313M132.385 65.3543L132.385 55.4313M132.385 65.3543L132.385 75.6589M132.385 65.3543L148.394 81.3836M132.385 75.6589L132.385 81.3836L138.102 81.3836M132.385 75.6589L138.102 81.3836M148.394 81.3836L138.102 81.3836" stroke="#E5C39C" stroke-width="4" stroke-linecap="round" stroke-linejoin="round"/>
<path d="M80.0637 244.848H70.3057M80.0637 244.848L54.5428 270.869M80.0637 244.848V254.797M41.0318 244.848H50.7898M41.0318 244.848H31.2739M41.0318 244.848H21.5159M41.0318 244.848L15.511 270.869M21.5159 244.848H31.2739M21.5159 244.848H11.758M21.5159 244.848L2 264.746M60.5477 244.848H70.3057M60.5477 244.848H50.7898M60.5477 244.848L35.0269 270.869M70.3057 244.848L44.7849 270.869M50.7898 244.848L25.269 270.869M31.2739 244.848L5.75306 270.869M11.758 244.848H2L2 254.797M11.758 244.848L2 254.797M2 254.797L2 264.746M2 264.746L2 270.869H5.75306M5.75306 270.869H15.511M15.511 270.869H25.269M25.269 270.869H35.0269M35.0269 270.869H44.7849M44.7849 270.869H53.6046H54.5428M64.3008 270.869H54.5428M64.3008 270.869H74.4341M64.3008 270.869L80.0637 254.797M74.4341 270.869H80.0637V265.129M74.4341 270.869L80.0637 265.129M80.0637 254.797V265.129" stroke="#AEAEAE" stroke-width="4" stroke-linecap="round" stroke-linejoin="round"/>
<path d="M80.0637 140H70.3057M80.0637 140L54.5428 166.021M80.0637 140V149.949M41.0318 140H50.7898M41.0318 140H31.2739M41.0318 140H21.5159M41.0318 140L15.511 166.021M21.5159 140H31.2739M21.5159 140H11.758M21.5159 140L2 159.899M60.5477 140H70.3057M60.5477 140H50.7898M60.5477 140L35.0269 166.021M70.3057 140L44.7849 166.021M50.7898 140L25.269 166.021M31.2739 140L5.75306 166.021M11.758 140H2L2 149.949M11.758 140L2 149.949M2 149.949L2 159.899M2 159.899L2 166.021H5.75306M5.75306 166.021H15.511M15.511 166.021H25.269M25.269 166.021H35.0269M35.0269 166.021H44.7849M44.7849 166.021H53.6046H54.5428M64.3008 166.021H54.5428M64.3008 166.021H74.4341M64.3008 166.021L80.0637 149.949M74.4341 166.021H80.0637V160.281M74.4341 166.021L80.0637 160.281M80.0637 149.949V160.281" stroke="#AEAEAE" stroke-width="4" stroke-linecap="round" stroke-linejoin="round"/>
<path d="M158.127 244.848H148.369M158.127 244.848L132.607 270.869M158.127 244.848V254.797M119.096 244.848H128.854M119.096 244.848H109.338M119.096 244.848H99.5796M119.096 244.848L93.5747 270.869M99.5796 244.848H109.338M99.5796 244.848H89.8217M99.5796 244.848L80.0637 264.746M138.611 244.848H148.369M138.611 244.848H128.854M138.611 244.848L113.091 270.869M148.369 244.848L122.849 270.869M128.854 244.848L103.333 270.869M109.338 244.848L83.8168 270.869M89.8217 244.848H80.0637L80.0637 254.797M89.8217 244.848L80.0637 254.797M80.0637 254.797L80.0637 264.746M80.0637 264.746L80.0637 270.869H83.8168M83.8168 270.869H93.5747M93.5747 270.869H103.333M103.333 270.869H113.091M113.091 270.869H122.849M122.849 270.869H131.668H132.607M142.365 270.869H132.607M142.365 270.869H152.498M142.365 270.869L158.127 254.797M152.498 270.869H158.127V265.129M152.498 270.869L158.127 265.129M158.127 254.797V265.129" stroke="#AEAEAE" stroke-width="4" stroke-linecap="round" stroke-linejoin="round"/>
<path d="M158.127 140H148.369M158.127 140L132.607 166.021M158.127 140V149.949M119.096 140H128.854M119.096 140H109.338M119.096 140H99.5796M119.096 140L93.5747 166.021M99.5796 140H109.338M99.5796 140H89.8217M99.5796 140L80.0637 159.899M138.611 140H148.369M138.611 140H128.854M138.611 140L113.091 166.021M148.369 140L122.849 166.021M128.854 140L103.333 166.021M109.338 140L83.8168 166.021M89.8217 140H80.0637L80.0637 149.949M89.8217 140L80.0637 149.949M80.0637 149.949L80.0637 159.899M80.0637 159.899L80.0637 166.021H83.8168M83.8168 166.021H93.5747M93.5747 166.021H103.333M103.333 166.021H113.091M113.091 166.021H122.849M122.849 166.021H131.668H132.607M142.365 166.021H132.607M142.365 166.021H152.498M142.365 166.021L158.127 149.949M152.498 166.021H158.127V160.281M152.498 166.021L158.127 160.281M158.127 149.949V160.281" stroke="#AEAEAE" stroke-width="4" stroke-linecap="round" stroke-linejoin="round"/>
<path d="M28.0221 244.849L28.0221 234.995M28.0221 244.849L2.00088 219.078M28.0221 244.849L18.0728 244.849M28.0221 205.434L28.0221 215.288M28.0221 205.434L28.0221 195.58M28.0221 205.434L28.0221 185.727M28.0221 205.434L2.00088 179.663M28.0221 185.727L28.0221 195.58M28.0221 185.727L28.0221 175.873M28.0221 185.727L8.12352 166.02M28.0221 225.141L28.0221 234.995M28.0221 225.141L28.0221 215.288M28.0221 225.141L2.00088 199.37M28.0221 234.995L2.00088 209.224M28.0221 215.288L2.00088 189.517M28.0221 195.58L2.00088 169.809M28.0221 175.873L28.0221 166.02L18.0728 166.02M28.0221 175.873L18.0728 166.02M18.0728 166.02L8.12352 166.02M8.12352 166.02L2.00088 166.02L2.00088 169.809M2.00088 169.809L2.00088 179.663M2.00088 179.663L2.00088 189.517M2.00088 189.517L2.00088 199.37M2.00088 199.37L2.00088 209.224M2.00088 209.224L2.00088 218.13L2.00088 219.078M2.00088 228.931L2.00088 219.078M2.00088 228.931L2.00088 239.164M2.00088 228.931L18.0728 244.849M2.00088 239.164L2.00088 244.849L7.74085 244.849M2.00088 239.164L7.74085 244.849M18.0728 244.849L7.74085 244.849" stroke="#E5C39C" stroke-width="4" stroke-linecap="round" stroke-linejoin="round"/>
<path d="M106.085 244.849L106.085 234.995M106.085 244.849L80.0637 219.078M106.085 244.849L96.1357 244.849M106.085 205.434L106.085 215.288M106.085 205.434L106.085 195.58M106.085 205.434L106.085 185.727M106.085 205.434L80.0637 179.663M106.085 185.727L106.085 195.58M106.085 185.727L106.085 175.873M106.085 185.727L86.1864 166.02M106.085 225.141L106.085 234.995M106.085 225.141L106.085 215.288M106.085 225.141L80.0637 199.37M106.085 234.995L80.0637 209.224M106.085 215.288L80.0637 189.517M106.085 195.58L80.0637 169.809M106.085 175.873L106.085 166.02L96.1357 166.02M106.085 175.873L96.1357 166.02M96.1357 166.02L86.1864 166.02M86.1864 166.02L80.0637 166.02L80.0637 169.809M80.0637 169.809L80.0637 179.663M80.0637 179.663L80.0637 189.517M80.0637 189.517L80.0637 199.37M80.0637 199.37L80.0637 209.224M80.0637 209.224L80.0637 218.13L80.0637 219.078M80.0637 228.931L80.0637 219.078M80.0637 228.931L80.0637 239.164M80.0637 228.931L96.1357 244.849M80.0637 239.164L80.0637 244.849L85.8037 244.849M80.0637 239.164L85.8037 244.849M96.1357 244.849L85.8037 244.849" stroke="#E5C39C" stroke-width="4" stroke-linecap="round" stroke-linejoin="round"/>
<path d="M54.0416 244.849L54.0416 234.995M54.0416 244.849L28.0204 219.078M54.0416 244.849L44.0923 244.849M54.0416 205.434L54.0416 215.288M54.0416 205.434L54.0416 195.58M54.0416 205.434L54.0416 185.727M54.0416 205.434L28.0204 179.663M54.0416 185.727L54.0416 195.58M54.0416 185.727L54.0416 175.873M54.0416 185.727L34.1431 166.02M54.0416 225.141L54.0416 234.995M54.0416 225.141L54.0416 215.288M54.0416 225.141L28.0204 199.37M54.0416 234.995L28.0204 209.224M54.0416 215.288L28.0204 189.517M54.0416 195.58L28.0204 169.809M54.0416 175.873L54.0416 166.02L44.0923 166.02M54.0416 175.873L44.0923 166.02M44.0923 166.02L34.1431 166.02M34.1431 166.02L28.0204 166.02L28.0204 169.809M28.0204 169.809L28.0204 179.663M28.0204 179.663L28.0204 189.517M28.0204 189.517L28.0204 199.37M28.0204 199.37L28.0204 209.224M28.0204 209.224L28.0204 218.13L28.0204 219.078M28.0204 228.931L28.0204 219.078M28.0204 228.931L28.0204 239.164M28.0204 228.931L44.0923 244.849M28.0204 239.164L28.0204 244.849L33.7604 244.849M28.0204 239.164L33.7604 244.849M44.0923 244.849L33.7604 244.849" stroke="#E5C39C" stroke-width="4" stroke-linecap="round" stroke-linejoin="round"/>
<path d="M132.106 244.849L132.106 234.995M132.106 244.849L106.085 219.078M132.106 244.849L122.157 244.849M132.106 205.434L132.106 215.288M132.106 205.434L132.106 195.58M132.106 205.434L132.106 185.727M132.106 205.434L106.085 179.663M132.106 185.727L132.106 195.58M132.106 185.727L132.106 175.873M132.106 185.727L112.208 166.02M132.106 225.141L132.106 234.995M132.106 225.141L132.106 215.288M132.106 225.141L106.085 199.37M132.106 234.995L106.085 209.224M132.106 215.288L106.085 189.517M132.106 195.58L106.085 169.809M132.106 175.873L132.106 166.02L122.157 166.02M132.106 175.873L122.157 166.02M122.157 166.02L112.208 166.02M112.208 166.02L106.085 166.02L106.085 169.809M106.085 169.809L106.085 179.663M106.085 179.663L106.085 189.517M106.085 189.517L106.085 199.37M106.085 199.37L106.085 209.224M106.085 209.224L106.085 218.13L106.085 219.078M106.085 228.931L106.085 219.078M106.085 228.931L106.085 239.164M106.085 228.931L122.157 244.849M106.085 239.164L106.085 244.849L111.825 244.849M106.085 239.164L111.825 244.849M122.157 244.849L111.825 244.849" stroke="#E5C39C" stroke-width="4" stroke-linecap="round" stroke-linejoin="round"/>
<path d="M80.0637 244.849L80.0637 234.995M80.0637 244.849L54.0425 219.078M80.0637 244.849L70.1144 244.849M80.0637 205.434L80.0637 215.288M80.0637 205.434L80.0637 195.58M80.0637 205.434L80.0637 185.727M80.0637 205.434L54.0425 179.663M80.0637 185.727L80.0637 195.58M80.0637 185.727L80.0637 175.873M80.0637 185.727L60.1651 166.02M80.0637 225.141L80.0637 234.995M80.0637 225.141L80.0637 215.288M80.0637 225.141L54.0425 199.37M80.0637 234.995L54.0425 209.224M80.0637 215.288L54.0425 189.517M80.0637 195.58L54.0425 169.809M80.0637 175.873L80.0637 166.02L70.1144 166.02M80.0637 175.873L70.1144 166.02M70.1144 166.02L60.1651 166.02M60.1651 166.02L54.0425 166.02L54.0425 169.809M54.0425 169.809L54.0425 179.663M54.0425 179.663L54.0425 189.517M54.0425 189.517L54.0425 199.37M54.0425 199.37L54.0425 209.224M54.0425 209.224L54.0425 218.13L54.0425 219.078M54.0425 228.931L54.0425 219.078M54.0425 228.931L54.0425 239.164M54.0425 228.931L70.1144 244.849M54.0425 239.164L54.0425 244.849L59.7825 244.849M54.0425 239.164L59.7825 244.849M70.1144 244.849L59.7825 244.849" stroke="#E5C39C" stroke-width="4" stroke-linecap="round" stroke-linejoin="round"/>
<path d="M158.128 244.849L158.128 234.995M158.128 244.849L132.107 219.078M158.128 244.849L148.179 244.849M158.128 205.434L158.128 215.288M158.128 205.434L158.128 195.58M158.128 205.434L158.128 185.727M158.128 205.434L132.107 179.663M158.128 185.727L158.128 195.58M158.128 185.727L158.128 175.873M158.128 185.727L138.23 166.02M158.128 225.141L158.128 234.995M158.128 225.141L158.128 215.288M158.128 225.141L132.107 199.37M158.128 234.995L132.107 209.224M158.128 215.288L132.107 189.517M158.128 195.58L132.107 169.809M158.128 175.873L158.128 166.02L148.179 166.02M158.128 175.873L148.179 166.02M148.179 166.02L138.23 166.02M138.23 166.02L132.107 166.02L132.107 169.809M132.107 169.809L132.107 179.663M132.107 179.663L132.107 189.517M132.107 189.517L132.107 199.37M132.107 199.37L132.107 209.224M132.107 209.224L132.107 218.13L132.107 219.078M132.107 228.931L132.107 219.078M132.107 228.931L132.107 239.164M132.107 228.931L148.179 244.849M132.107 239.164L132.107 244.849L137.847 244.849M132.107 239.164L137.847 244.849M148.179 244.849L137.847 244.849" stroke="#E5C39C" stroke-width="4" stroke-linecap="round" stroke-linejoin="round"/>
</svg>
