<svg width="124" height="124" viewBox="0 0 124 124" fill="none" xmlns="http://www.w3.org/2000/svg">
<circle cx="62.3535" cy="5.00393" r="3.30081" stroke="#113436" stroke-width="1.6"/>
<circle cx="62.3594" cy="119.703" r="3.30081" stroke="#113436" stroke-width="1.6"/>
<circle cx="77.1973" cy="6.95671" r="3.30081" transform="rotate(15 77.1973 6.95671)" stroke="#113436" stroke-width="1.6"/>
<circle cx="47.5137" cy="117.757" r="3.30081" transform="rotate(15 47.5137 117.757)" stroke="#113436" stroke-width="1.6"/>
<circle cx="91.0246" cy="12.6809" r="3.30081" transform="rotate(30 91.0246 12.6809)" stroke="#113436" stroke-width="1.6"/>
<circle cx="33.673" cy="112.029" r="3.30081" transform="rotate(30 33.673 112.029)" stroke="#113436" stroke-width="1.6"/>
<circle cx="3.30081" cy="3.30081" r="3.30081" transform="matrix(0.707093 0.707121 -0.707093 0.707121 102.891 17.1172)" stroke="#113436" stroke-width="1.6"/>
<circle cx="21.7852" cy="102.895" r="3.30081" transform="rotate(45 21.7852 102.895)" stroke="#113436" stroke-width="1.6"/>
<circle cx="112.018" cy="33.6535" r="3.30081" transform="rotate(60 112.018 33.6535)" stroke="#113436" stroke-width="1.6"/>
<circle cx="12.6883" cy="91.0051" r="3.30081" transform="rotate(60 12.6883 91.0051)" stroke="#113436" stroke-width="1.6"/>
<circle cx="117.742" cy="47.5114" r="3.30081" transform="rotate(75 117.742 47.5114)" stroke="#113436" stroke-width="1.6"/>
<circle cx="6.95113" cy="77.1989" r="3.30081" transform="rotate(75 6.95113 77.1989)" stroke="#113436" stroke-width="1.6"/>
<circle cx="119.701" cy="62.3672" r="3.30081" transform="rotate(90 119.701 62.3672)" stroke="#113436" stroke-width="1.6"/>
<circle cx="4.99997" cy="62.3789" r="3.30081" transform="rotate(90 4.99997 62.3789)" stroke="#113436" stroke-width="1.6"/>
<circle cx="117.733" cy="77.2012" r="3.30081" transform="rotate(105 117.733 77.2012)" stroke="#113436" stroke-width="1.6"/>
<circle cx="6.94563" cy="47.5215" r="3.30081" transform="rotate(105 6.94563 47.5215)" stroke="#113436" stroke-width="1.6"/>
<circle cx="112.011" cy="91.0207" r="3.30081" transform="rotate(120 112.011 91.0207)" stroke="#113436" stroke-width="1.6"/>
<circle cx="12.6746" cy="33.673" r="3.30081" transform="rotate(120 12.6746 33.673)" stroke="#113436" stroke-width="1.6"/>
<circle cx="102.891" cy="102.887" r="3.30081" transform="rotate(135 102.891 102.887)" stroke="#113436" stroke-width="1.6"/>
<circle cx="21.7909" cy="21.7852" r="3.30081" transform="rotate(135 21.7909 21.7852)" stroke="#113436" stroke-width="1.6"/>
<circle cx="91.0262" cy="112.026" r="3.30081" transform="rotate(150 91.0262 112.026)" stroke="#113436" stroke-width="1.6"/>
<circle cx="33.6746" cy="12.6864" r="3.30081" transform="rotate(150 33.6746 12.6864)" stroke="#113436" stroke-width="1.6"/>
<circle cx="77.1917" cy="117.744" r="3.30081" transform="rotate(165 77.1917 117.744)" stroke="#113436" stroke-width="1.6"/>
<circle cx="47.5003" cy="6.94332" r="3.30081" transform="rotate(165 47.5003 6.94332)" stroke="#113436" stroke-width="1.6"/>
</svg>
