<svg width="147" height="147" viewBox="0 0 147 147" fill="none" xmlns="http://www.w3.org/2000/svg">
<circle cx="73.3527" cy="4.93078" r="3.93859" stroke="#113436" stroke-width="1.6"/>
<circle cx="73.3585" cy="141.79" r="3.93859" stroke="#113436" stroke-width="1.6"/>
<circle cx="91.0643" cy="7.26127" r="3.93859" transform="rotate(15 91.0643 7.26127)" stroke="#113436" stroke-width="1.6"/>
<circle cx="55.6424" cy="139.464" r="3.93859" transform="rotate(15 55.6424 139.464)" stroke="#113436" stroke-width="1.6"/>
<circle cx="107.569" cy="14.0833" r="3.93859" transform="rotate(30 107.569 14.0833)" stroke="#113436" stroke-width="1.6"/>
<circle cx="39.133" cy="132.618" r="3.93859" transform="rotate(30 39.133 132.618)" stroke="#113436" stroke-width="1.6"/>
<circle cx="3.93859" cy="3.93859" r="3.93859" transform="matrix(0.707093 0.707121 -0.707093 0.707121 121.723 19.3945)" stroke="#113436" stroke-width="1.6"/>
<circle cx="24.9453" cy="121.746" r="3.93859" transform="rotate(45 24.9453 121.746)" stroke="#113436" stroke-width="1.6"/>
<circle cx="132.617" cy="39.1107" r="3.93859" transform="rotate(60 132.617 39.1107)" stroke="#113436" stroke-width="1.6"/>
<circle cx="14.0935" cy="107.548" r="3.93859" transform="rotate(60 14.0935 107.548)" stroke="#113436" stroke-width="1.6"/>
<circle cx="139.444" cy="55.6363" r="3.93859" transform="rotate(75 139.444 55.6363)" stroke="#113436" stroke-width="1.6"/>
<circle cx="7.24234" cy="91.0581" r="3.93859" transform="rotate(75 7.24234 91.0581)" stroke="#113436" stroke-width="1.6"/>
<circle cx="141.78" cy="73.3683" r="3.93859" transform="rotate(90 141.78 73.3683)" stroke="#113436" stroke-width="1.6"/>
<circle cx="4.91493" cy="73.3761" r="3.93859" transform="rotate(90 4.91493 73.3761)" stroke="#113436" stroke-width="1.6"/>
<circle cx="139.436" cy="91.0623" r="3.93859" transform="rotate(105 139.436 91.0623)" stroke="#113436" stroke-width="1.6"/>
<circle cx="7.24264" cy="55.6444" r="3.93859" transform="rotate(105 7.24264 55.6444)" stroke="#113436" stroke-width="1.6"/>
<circle cx="132.606" cy="107.567" r="3.93859" transform="rotate(120 132.606 107.567)" stroke="#113436" stroke-width="1.6"/>
<circle cx="14.0788" cy="39.133" r="3.93859" transform="rotate(120 14.0788 39.133)" stroke="#113436" stroke-width="1.6"/>
<circle cx="121.723" cy="121.723" r="3.93859" transform="rotate(135 121.723 121.723)" stroke="#113436" stroke-width="1.6"/>
<circle cx="24.9534" cy="24.9531" r="3.93859" transform="rotate(135 24.9534 24.9531)" stroke="#113436" stroke-width="1.6"/>
<circle cx="107.569" cy="132.617" r="3.93859" transform="rotate(150 107.569 132.617)" stroke="#113436" stroke-width="1.6"/>
<circle cx="39.1335" cy="14.0857" r="3.93859" transform="rotate(150 39.1335 14.0857)" stroke="#113436" stroke-width="1.6"/>
<circle cx="91.063" cy="139.449" r="3.93859" transform="rotate(165 91.063 139.449)" stroke="#113436" stroke-width="1.6"/>
<circle cx="55.6333" cy="7.24234" r="3.93859" transform="rotate(165 55.6333 7.24234)" stroke="#113436" stroke-width="1.6"/>
</svg>
