<svg width="177" height="177" viewBox="0 0 177 177" fill="none" xmlns="http://www.w3.org/2000/svg">
<circle cx="88.3434" cy="6.00162" r="4.73991" stroke="#113436" stroke-width="1.6"/>
<circle cx="88.3493" cy="170.709" r="4.73991" stroke="#113436" stroke-width="1.6"/>
<circle cx="109.652" cy="8.79736" r="4.73991" transform="rotate(15 109.652 8.79736)" stroke="#113436" stroke-width="1.6"/>
<circle cx="67.0235" cy="167.903" r="4.73991" transform="rotate(15 67.0235 167.903)" stroke="#113436" stroke-width="1.6"/>
<circle cx="129.512" cy="17.0061" r="4.73991" transform="rotate(30 129.512 17.0061)" stroke="#113436" stroke-width="1.6"/>
<circle cx="47.1568" cy="159.662" r="4.73991" transform="rotate(30 47.1568 159.662)" stroke="#113436" stroke-width="1.6"/>
<circle cx="4.73991" cy="4.73991" r="4.73991" transform="matrix(0.707093 0.707121 -0.707093 0.707121 146.555 23.4375)" stroke="#113436" stroke-width="1.6"/>
<circle cx="30.0879" cy="146.609" r="4.73991" transform="rotate(45 30.0879 146.609)" stroke="#113436" stroke-width="1.6"/>
<circle cx="159.65" cy="47.1194" r="4.7399" transform="rotate(60 159.65 47.1194)" stroke="#113436" stroke-width="1.6"/>
<circle cx="17.0092" cy="129.475" r="4.7399" transform="rotate(60 17.0092 129.475)" stroke="#113436" stroke-width="1.6"/>
<circle cx="167.877" cy="67.0396" r="4.73991" transform="rotate(75 167.877 67.0396)" stroke="#113436" stroke-width="1.6"/>
<circle cx="8.78119" cy="109.68" r="4.73991" transform="rotate(75 8.78119 109.68)" stroke="#113436" stroke-width="1.6"/>
<circle cx="170.688" cy="88.3415" r="4.73991" transform="rotate(90 170.688 88.3415)" stroke="#113436" stroke-width="1.6"/>
<circle cx="5.97494" cy="88.3454" r="4.73991" transform="rotate(90 5.97494 88.3454)" stroke="#113436" stroke-width="1.6"/>
<circle cx="167.867" cy="109.664" r="4.73991" transform="rotate(105 167.867 109.664)" stroke="#113436" stroke-width="1.6"/>
<circle cx="8.7749" cy="67.043" r="4.73991" transform="rotate(105 8.7749 67.043)" stroke="#113436" stroke-width="1.6"/>
<circle cx="159.654" cy="129.512" r="4.73991" transform="rotate(120 159.654 129.512)" stroke="#113436" stroke-width="1.6"/>
<circle cx="17.0076" cy="47.1607" r="4.73991" transform="rotate(120 17.0076 47.1607)" stroke="#113436" stroke-width="1.6"/>
<circle cx="146.551" cy="146.57" r="4.73991" transform="rotate(135 146.551 146.57)" stroke="#113436" stroke-width="1.6"/>
<circle cx="30.0897" cy="30.1133" r="4.73991" transform="rotate(135 30.0897 30.1133)" stroke="#113436" stroke-width="1.6"/>
<circle cx="129.511" cy="159.671" r="4.73991" transform="rotate(150 129.511 159.671)" stroke="#113436" stroke-width="1.6"/>
<circle cx="47.1521" cy="17.0268" r="4.73991" transform="rotate(150 47.1521 17.0268)" stroke="#113436" stroke-width="1.6"/>
<circle cx="109.648" cy="167.891" r="4.73991" transform="rotate(165 109.648 167.891)" stroke="#113436" stroke-width="1.6"/>
<circle cx="67.0132" cy="8.77729" r="4.73991" transform="rotate(165 67.0132 8.77729)" stroke="#113436" stroke-width="1.6"/>
</svg>
