<svg width="101" height="101" viewBox="0 0 101 101" fill="none" xmlns="http://www.w3.org/2000/svg">
<circle cx="50.3534" cy="3.87486" r="2.67564" stroke="#113436" stroke-width="1.6"/>
<circle cx="50.3573" cy="96.8514" r="2.67564" stroke="#113436" stroke-width="1.6"/>
<circle cx="62.3802" cy="5.46057" r="2.67564" transform="rotate(15 62.3802 5.46057)" stroke="#113436" stroke-width="1.6"/>
<circle cx="38.3177" cy="95.2692" r="2.67564" transform="rotate(15 38.3177 95.2692)" stroke="#113436" stroke-width="1.6"/>
<circle cx="73.5887" cy="10.0847" r="2.67564" transform="rotate(30 73.5887 10.0847)" stroke="#113436" stroke-width="1.6"/>
<circle cx="27.0965" cy="90.612" r="2.67564" transform="rotate(30 27.0965 90.612)" stroke="#113436" stroke-width="1.6"/>
<circle cx="2.67564" cy="2.67564" r="2.67564" transform="matrix(0.707093 0.707121 -0.707093 0.707121 83.209 13.6953)" stroke="#113436" stroke-width="1.6"/>
<circle cx="17.4629" cy="83.2253" r="2.67564" transform="rotate(45 17.4629 83.2253)" stroke="#113436" stroke-width="1.6"/>
<circle cx="90.6046" cy="27.0925" r="2.67564" transform="rotate(60 90.6046 27.0925)" stroke="#113436" stroke-width="1.6"/>
<circle cx="10.0871" cy="73.5847" r="2.67564" transform="rotate(60 10.0871 73.5847)" stroke="#113436" stroke-width="1.6"/>
<circle cx="95.2448" cy="38.3317" r="2.67564" transform="rotate(75 95.2448 38.3317)" stroke="#113436" stroke-width="1.6"/>
<circle cx="5.43421" cy="62.402" r="2.67564" transform="rotate(75 5.43421 62.402)" stroke="#113436" stroke-width="1.6"/>
<circle cx="96.8341" cy="50.367" r="2.67564" transform="rotate(90 96.8341 50.367)" stroke="#113436" stroke-width="1.6"/>
<circle cx="3.85756" cy="50.3788" r="2.67564" transform="rotate(90 3.85756 50.3788)" stroke="#113436" stroke-width="1.6"/>
<circle cx="95.2445" cy="62.3881" r="2.67564" transform="rotate(105 95.2445 62.3881)" stroke="#113436" stroke-width="1.6"/>
<circle cx="5.43982" cy="38.3295" r="2.67564" transform="rotate(105 5.43982 38.3295)" stroke="#113436" stroke-width="1.6"/>
<circle cx="90.5989" cy="73.6004" r="2.67564" transform="rotate(120 90.5989 73.6004)" stroke="#113436" stroke-width="1.6"/>
<circle cx="10.0755" cy="27.12" r="2.67564" transform="rotate(120 10.0755 27.12)" stroke="#113436" stroke-width="1.6"/>
<circle cx="83.2141" cy="83.2148" r="2.67564" transform="rotate(135 83.2141 83.2148)" stroke="#113436" stroke-width="1.6"/>
<circle cx="17.468" cy="17.4727" r="2.67564" transform="rotate(135 17.468 17.4727)" stroke="#113436" stroke-width="1.6"/>
<circle cx="73.597" cy="90.6183" r="2.67564" transform="rotate(150 73.597 90.6183)" stroke="#113436" stroke-width="1.6"/>
<circle cx="27.1087" cy="10.0988" r="2.67564" transform="rotate(150 27.1087 10.0988)" stroke="#113436" stroke-width="1.6"/>
<circle cx="62.3851" cy="95.2604" r="2.67564" transform="rotate(165 62.3851 95.2604)" stroke="#113436" stroke-width="1.6"/>
<circle cx="38.3168" cy="5.45569" r="2.67564" transform="rotate(165 38.3168 5.45569)" stroke="#113436" stroke-width="1.6"/>
</svg>
