<svg width="204" height="204" viewBox="0 0 204 204" fill="none" xmlns="http://www.w3.org/2000/svg">
<circle cx="102.343" cy="7.12803" r="5.47959" stroke="#113436" stroke-width="1.6"/>
<circle cx="102.345" cy="197.523" r="5.47959" stroke="#113436" stroke-width="1.6"/>
<circle cx="126.978" cy="10.383" r="5.47959" transform="rotate(15 126.978 10.383)" stroke="#113436" stroke-width="1.6"/>
<circle cx="77.6989" cy="194.293" r="5.47959" transform="rotate(15 77.6989 194.293)" stroke="#113436" stroke-width="1.6"/>
<circle cx="149.941" cy="19.872" r="5.47959" transform="rotate(30 149.941 19.872)" stroke="#113436" stroke-width="1.6"/>
<circle cx="54.7322" cy="184.778" r="5.47959" transform="rotate(30 54.7322 184.778)" stroke="#113436" stroke-width="1.6"/>
<circle cx="5.47959" cy="5.47959" r="5.47959" transform="matrix(0.707093 0.707121 -0.707093 0.707121 169.652 27.2695)" stroke="#113436" stroke-width="1.6"/>
<circle cx="35.0059" cy="169.663" r="5.47959" transform="rotate(45 35.0059 169.663)" stroke="#113436" stroke-width="1.6"/>
<circle cx="184.789" cy="54.7079" r="5.47959" transform="rotate(60 184.789 54.7079)" stroke="#113436" stroke-width="1.6"/>
<circle cx="19.8928" cy="149.919" r="5.47959" transform="rotate(60 19.8928 149.919)" stroke="#113436" stroke-width="1.6"/>
<circle cx="194.301" cy="77.6759" r="5.47959" transform="rotate(75 194.301 77.6759)" stroke="#113436" stroke-width="1.6"/>
<circle cx="10.3851" cy="126.965" r="5.47959" transform="rotate(75 10.3851 126.965)" stroke="#113436" stroke-width="1.6"/>
<circle cx="197.544" cy="102.312" r="5.47959" transform="rotate(90 197.544 102.312)" stroke="#113436" stroke-width="1.6"/>
<circle cx="7.12978" cy="102.323" r="5.47959" transform="rotate(90 7.12978 102.323)" stroke="#113436" stroke-width="1.6"/>
<circle cx="194.297" cy="126.949" r="5.47959" transform="rotate(105 194.297 126.949)" stroke="#113436" stroke-width="1.6"/>
<circle cx="10.3729" cy="77.6676" r="5.47959" transform="rotate(105 10.3729 77.6676)" stroke="#113436" stroke-width="1.6"/>
<circle cx="184.792" cy="149.928" r="5.47959" transform="rotate(120 184.792 149.928)" stroke="#113436" stroke-width="1.6"/>
<circle cx="19.8761" cy="54.7205" r="5.47959" transform="rotate(120 19.8761 54.7205)" stroke="#113436" stroke-width="1.6"/>
<circle cx="169.645" cy="169.598" r="5.47959" transform="rotate(135 169.645 169.598)" stroke="#113436" stroke-width="1.6"/>
<circle cx="35.0222" cy="34.9648" r="5.47959" transform="rotate(135 35.0222 34.9648)" stroke="#113436" stroke-width="1.6"/>
<circle cx="149.939" cy="184.787" r="5.47959" transform="rotate(150 149.939 184.787)" stroke="#113436" stroke-width="1.6"/>
<circle cx="54.7393" cy="19.9006" r="5.47959" transform="rotate(150 54.7393 19.9006)" stroke="#113436" stroke-width="1.6"/>
<circle cx="126.99" cy="194.297" r="5.47959" transform="rotate(165 126.99 194.297)" stroke="#113436" stroke-width="1.6"/>
<circle cx="77.701" cy="10.3753" r="5.47959" transform="rotate(165 77.701 10.3753)" stroke="#113436" stroke-width="1.6"/>
</svg>
