<svg width="480" height="472" viewBox="0 0 480 472" fill="none" xmlns="http://www.w3.org/2000/svg">
<g clip-path="url(#clip0_2654_96690)">
<path d="M257.847 342.987C275.6 345.239 291.442 321.388 293.231 289.714C295.02 258.039 282.079 230.536 264.326 228.284M257.847 342.987C240.094 340.734 227.153 313.231 228.943 281.557C230.732 249.882 246.574 226.031 264.326 228.284M257.847 342.987L289.606 341.249M264.326 228.284L652.109 233.344" stroke="#E5C39C" stroke-width="4" stroke-linecap="round" stroke-linejoin="round"/>
<path d="M197.134 300.873C214.887 303.126 230.729 279.275 232.518 247.6C234.307 215.926 221.366 188.423 203.613 186.17M197.134 300.873C179.381 298.621 166.44 271.118 168.229 239.443C170.019 207.769 185.861 183.918 203.613 186.17M197.134 300.873L228.893 299.136M203.613 186.17L591.396 191.231" stroke="#E5C39C" stroke-width="4" stroke-linecap="round" stroke-linejoin="round"/>
<path d="M136.421 258.764C154.174 261.016 170.016 237.165 171.805 205.491C173.594 173.817 160.653 146.313 142.901 144.061M136.421 258.764C118.669 256.512 105.727 229.008 107.517 197.334C109.306 165.66 125.148 141.809 142.901 144.061M136.421 258.764L168.18 257.027M142.901 144.061L530.683 149.122" stroke="#E5C39C" stroke-width="4" stroke-linecap="round" stroke-linejoin="round"/>
<path d="M75.7083 216.659C93.4612 218.911 109.303 195.06 111.092 163.385C112.881 131.711 99.9404 104.208 82.1876 101.955M75.7083 216.659C57.9555 214.406 45.0145 186.903 46.8036 155.229C48.5928 123.554 64.4347 99.703 82.1876 101.955M75.7083 216.659L107.467 214.921M82.1876 101.955L493.97 107.016" stroke="#E5C39C" stroke-width="4" stroke-linecap="round" stroke-linejoin="round"/>
<path d="M318.174 381.166C335.927 383.419 351.769 359.568 353.558 327.893C355.347 296.219 342.406 268.716 324.654 266.463M318.174 381.166C300.422 378.914 287.48 351.411 289.27 319.736C291.059 288.062 306.901 264.211 324.654 266.463M318.174 381.166L689.511 379.623M324.654 266.463L712.436 271.524" stroke="#E5C39C" stroke-width="4" stroke-linecap="round" stroke-linejoin="round"/>
<ellipse cx="27.5595" cy="35.074" rx="27.5595" ry="35.074" transform="matrix(0.80958 0.102718 -0.0641111 1.13497 241.026 243.004)" stroke="#E5C39C" stroke-width="4" stroke-linecap="round" stroke-linejoin="round"/>
<ellipse cx="27.5595" cy="35.074" rx="27.5595" ry="35.074" transform="matrix(0.80958 0.102718 -0.0641111 1.13497 180.313 200.891)" stroke="#E5C39C" stroke-width="4" stroke-linecap="round" stroke-linejoin="round"/>
<ellipse cx="27.5595" cy="35.074" rx="27.5595" ry="35.074" transform="matrix(0.80958 0.102718 -0.0641111 1.13497 119.6 158.781)" stroke="#E5C39C" stroke-width="4" stroke-linecap="round" stroke-linejoin="round"/>
<ellipse cx="27.5595" cy="35.074" rx="27.5595" ry="35.074" transform="matrix(0.80958 0.102718 -0.0641111 1.13497 58.887 116.672)" stroke="#E5C39C" stroke-width="4" stroke-linecap="round" stroke-linejoin="round"/>
<ellipse cx="27.5595" cy="35.074" rx="27.5595" ry="35.074" transform="matrix(0.80958 0.102718 -0.0641111 1.13497 301.353 281.184)" stroke="#E5C39C" stroke-width="4" stroke-linecap="round" stroke-linejoin="round"/>
</g>
<defs>
<clipPath id="clip0_2654_96690">
<path d="M0 0H480V448C480 461.255 469.255 472 456 472H24C10.7452 472 0 461.255 0 448V0Z" fill="white"/>
</clipPath>
</defs>
</svg>
