<svg width="75" height="427" viewBox="0 0 75 427" fill="none" xmlns="http://www.w3.org/2000/svg">
<path d="M73 32L73 11.9572C72.433 11.6112 71.8604 11.2733 71.2823 10.9435C61.0112 5.08449 49.3601 2 37.5 2C25.64 2 13.9888 5.08449 3.71774 10.9435C3.13959 11.2733 2.56696 11.6112 2.00001 11.9571L2 32M73 32C70.87 30.349 68.6176 28.8431 66.2571 27.4966C57.5139 22.5092 47.5959 19.8835 37.5 19.8835C27.4041 19.8835 17.4862 22.5092 8.74288 27.4966C6.38239 28.8431 4.12998 30.349 2 32M73 32L73 424.5M2 32L2 424.5" stroke="#E5C39C" stroke-width="4" stroke-linecap="round" stroke-linejoin="round"/>
</svg>
