<svg width="47" height="37" viewBox="0 0 47 37" fill="none" xmlns="http://www.w3.org/2000/svg">
<path d="M47 0H0V37H47V0Z" fill="#003399"/>
<path d="M21.5858 5.5313L23.041 5.53446L23.4998 4.10938L23.9587 5.53446L25.412 5.5313L25.4354 5.52734L25.43 5.53126L25.4354 5.53125L25.4183 5.53985L24.2397 6.40448L24.6972 7.82812L24.6931 7.82392L24.6952 7.82812L23.4989 6.95142L22.3026 7.82812L22.3048 7.82392L22.3007 7.82812L22.7581 6.40448L21.5796 5.53985L21.5625 5.53125L21.5678 5.53126L21.5625 5.52734L21.5858 5.5313Z" fill="#FFCC00"/>
<path d="M23.4998 28.7773L23.041 30.2024L21.5858 30.1993L21.5625 30.1953L21.5678 30.1992L21.5625 30.1992L21.5796 30.2078L22.7581 31.0724L22.3007 32.4961L22.3048 32.4919L22.3026 32.4961L23.4989 31.6194L24.6952 32.4961L24.6931 32.4919L24.6972 32.4961L24.2397 31.0724L25.4183 30.2078L25.4354 30.1992L25.43 30.1992L25.4354 30.1953L25.412 30.1993L23.9587 30.2024L23.4998 28.7773Z" fill="#FFCC00"/>
<path d="M11.2772 16.4414L10.8183 17.8665L9.36316 17.8633L9.33984 17.8594L9.34518 17.8633L9.33984 17.8633L9.3569 17.8719L10.5355 18.7365L10.078 20.1602L10.0821 20.1559L10.08 20.1602L11.2763 19.2834L12.4726 20.1602L12.4704 20.1559L12.4745 20.1602L12.0171 18.7365L13.1956 17.8719L13.2127 17.8633L13.2074 17.8633L13.2127 17.8594L13.1894 17.8633L11.736 17.8665L11.2772 16.4414Z" fill="#FFCC00"/>
<path d="M16.1933 9.48438L17.3928 8.60531L18.5785 9.47495L18.5839 9.48047L18.5832 9.47841L18.5861 9.48054L18.5802 9.46904L18.1265 8.06281L19.3261 7.18359L19.3232 7.18408L19.3241 7.18359L17.8431 7.18218L17.3847 5.76172L16.9273 7.18533L15.4744 7.18362L15.4511 7.17969L15.4564 7.1836L15.4511 7.18359L15.4681 7.19221L16.6484 8.05779L16.1913 9.48047L16.1996 9.47195L16.1933 9.48438Z" fill="#FFCC00"/>
<path d="M14.1112 13.9961L13.6542 12.5734L14.8344 11.7078L14.8515 11.6992L14.8461 11.6992L14.8515 11.6953L14.8282 11.6992L13.3752 11.701L12.9179 10.2773L12.4595 11.6978L10.9784 11.6992L10.9794 11.6997L10.9765 11.6992L12.176 12.5784L11.7223 13.9847L11.7164 13.9962L11.7193 13.994L11.7187 13.9961L11.724 13.9906L12.9124 13.119L14.1093 13.9961L14.1071 13.9919L14.1112 13.9961Z" fill="#FFCC00"/>
<path d="M14.8281 24.0274L13.3757 24.0319L12.9198 22.6094L12.4617 24.0255L10.9784 24.0273L12.1774 24.9061L11.7233 26.3115L11.7147 26.3281L11.719 26.325L11.7167 26.332L11.7349 26.3133L12.91 25.4513L14.1073 26.3281L14.0989 26.3116L14.1112 26.3242L13.6556 24.901L14.8344 24.0359L14.8515 24.0273L14.8461 24.0274L14.8515 24.0234L14.8281 24.0274Z" fill="#FFCC00"/>
<path d="M19.3027 28.543L17.8503 28.5475L17.3944 27.125L16.9363 28.5412L15.453 28.543L16.652 29.4217L16.1979 30.8271L16.1894 30.8438L16.1936 30.8407L16.1913 30.8477L16.2095 30.829L17.3846 29.9669L18.5819 30.8438L18.5735 30.8273L18.5858 30.8398L18.1302 29.4166L19.309 28.5516L19.3261 28.543L19.3207 28.543L19.3261 28.5391L19.3027 28.543Z" fill="#FFCC00"/>
<path d="M35.7207 16.4414L36.1796 17.8665L37.6347 17.8633L37.658 17.8594L37.6527 17.8633L37.658 17.8633L37.641 17.8719L36.4624 18.7365L36.9198 20.1602L36.9157 20.1559L36.9179 20.1602L35.7216 19.2834L34.5253 20.1602L34.5275 20.1559L34.5233 20.1602L34.9808 18.7365L33.8022 17.8719L33.7852 17.8633L33.7905 17.8633L33.7852 17.8594L33.8085 17.8633L35.2618 17.8665L35.7207 16.4414Z" fill="#FFCC00"/>
<path d="M30.8046 9.48438L29.6051 8.60531L28.4193 9.47495L28.414 9.48047L28.4146 9.47841L28.4117 9.48054L28.4177 9.46903L28.8714 8.06281L27.6718 7.18359L27.6747 7.18408L27.6737 7.18359L29.1548 7.18218L29.6132 5.76172L30.0706 7.18533L31.5235 7.18362L31.5468 7.17969L31.5414 7.1836L31.5468 7.18359L31.5297 7.19221L30.3495 8.05779L30.8065 9.48047L30.7982 9.47195L30.8046 9.48438Z" fill="#FFCC00"/>
<path d="M32.8866 13.9961L33.3437 12.5734L32.1635 11.7078L32.1464 11.6992L32.1517 11.6992L32.1464 11.6953L32.1697 11.6992L33.6226 11.701L34.08 10.2773L34.5384 11.6978L36.0194 11.6992L36.0185 11.6997L36.0214 11.6992L34.8218 12.5784L35.2755 13.9847L35.2814 13.9962L35.2785 13.994L35.2792 13.9961L35.2738 13.9906L34.0854 13.119L32.8886 13.9961L32.8907 13.9919L32.8866 13.9961Z" fill="#FFCC00"/>
<path d="M32.1697 24.0274L33.6222 24.0319L34.078 22.6094L34.5362 24.0255L36.0194 24.0273L34.8204 24.9061L35.2745 26.3115L35.2831 26.3281L35.2789 26.325L35.2812 26.332L35.263 26.3133L34.0879 25.4513L32.8905 26.3281L32.899 26.3116L32.8866 26.3242L33.3423 24.901L32.1634 24.0359L32.1464 24.0273L32.1517 24.0274L32.1464 24.0234L32.1697 24.0274Z" fill="#FFCC00"/>
<path d="M27.6951 28.543L29.1476 28.5475L29.6034 27.125L30.0616 28.5412L31.5448 28.543L30.3458 29.4217L30.7999 30.8271L30.8085 30.8438L30.8043 30.8407L30.8065 30.8477L30.7884 30.829L29.6133 29.9669L28.4159 30.8438L28.4244 30.8273L28.412 30.8398L28.8677 29.4166L27.6888 28.5516L27.6718 28.543L27.6771 28.543L27.6718 28.5391L27.6951 28.543Z" fill="#FFCC00"/>
</svg>
