<svg width="101" height="26" viewBox="0 0 101 26" fill="none" xmlns="http://www.w3.org/2000/svg">
<path d="M8.24511 14.1098L4.13267 18.2222L1.70343 15.793L5.81587 11.6806H0L0 8.24511H5.81587L1.70343 4.13266L4.13266 1.70343L8.24511 5.81587L8.24511 0L11.6806 0V5.81587L15.793 1.70343L18.2223 4.13266L14.1098 8.24511L19.9257 8.24511V11.6806L14.1098 11.6806L18.2222 15.793L15.793 18.2222L11.6806 14.1098L11.6806 19.9257H8.24511L8.24511 14.1098Z" fill="#FF5146"/>
<path d="M29.6289 18.3806H40.1851C42.8457 18.3806 45.0026 16.2238 45.0026 13.5632C45.0026 11.5152 43.7077 9.69105 41.7744 9.01542L30.7251 5.15411H43.199V1.54688H29.6289V8.59218L40.5844 12.4207C41.0701 12.5904 41.3953 13.0487 41.3953 13.5632C41.3953 14.2316 40.8535 14.7734 40.1851 14.7734H29.6289V18.3806Z" fill="#113436"/>
<path fill-rule="evenodd" clip-rule="evenodd" d="M59.3456 15.4605C59.0476 17.1494 57.5801 18.3806 55.8651 18.3806H51.8735C48.8378 18.3806 46.3768 15.9197 46.3768 12.8839C46.3768 9.84813 48.8378 7.38716 51.8735 7.38716L59.2598 7.38716L59.2598 5.15411H48.1804V1.54688H62.867V18.3806H59.3456V15.4605ZM49.984 12.8839C49.984 13.9274 50.83 14.7734 51.8735 14.7734H59.2598V10.9944H51.8735C50.83 10.9944 49.984 11.8404 49.984 12.8839Z" fill="#113436"/>
<path d="M76.2773 18.3806H70.7566L64.0645 1.54688H67.9463L73.5169 15.5596L79.0876 1.54688H82.9694L76.2773 18.3806Z" fill="#113436"/>
<path d="M83.9951 1.54688V9.96376C83.9951 14.6597 87.8019 18.4665 92.4979 18.4665C94.3205 18.4665 96.0092 17.893 97.3934 16.9167V21.5584H85.7987V25.1657H101.001V1.54688L97.3934 1.54688V9.96376C97.3934 12.6675 95.2016 14.8593 92.4979 14.8593C89.7941 14.8593 87.6023 12.6675 87.6023 9.96376V1.54688H83.9951Z" fill="#113436"/>
</svg>
