<svg width="101" height="21" viewBox="0 0 101 21" fill="none" xmlns="http://www.w3.org/2000/svg">
<path d="M21.2686 0.803999L24.9946 3.342V3.855L19.2976 12.306H18.7846L15.0586 9.768V9.255L17.4076 5.772V3.936L5.90558 21H5.39258L1.66658 18.462V17.949L9.87458 5.772V3.936L4.23158 12.306H3.71858L-0.00741792 9.768V9.255L5.68958 0.803999H6.20258L9.90158 3.315H11.5216L13.2226 0.803999H13.7356L17.4346 3.315H19.0546L20.7556 0.803999H21.2686ZM36.3323 0.803999L40.0583 3.342V3.855L28.5023 21H27.9893L24.2633 18.462V17.949L27.9893 12.414V10.578L20.9693 21H20.4563L16.7303 18.462V17.949L28.2863 0.803999H28.7993L32.5253 3.342V3.855L28.3673 10.011H29.6093L35.8193 0.803999H36.3323ZM51.4143 0.803999L55.1403 3.342V3.855L43.5843 21H43.0713L39.3453 18.462V17.949L41.4513 14.817V12.981L36.0513 21H35.5383L31.8123 18.462V17.949L43.3683 0.803999H43.8813L47.6073 3.342H49.2003L50.9013 0.803999H51.4143ZM41.8023 12.468H43.0443L47.5533 5.772V3.936L41.8023 12.468ZM66.4963 0.803999L70.2223 3.342V3.855L58.6663 21H58.1533L54.4273 18.462V17.949L62.6353 5.772V3.936L51.1333 21H50.6203L46.8943 18.462V17.949L58.4503 0.803999H58.9633L62.6623 3.315H64.2823L65.9833 0.803999H66.4963ZM74.8554 10.767L78.5814 13.305V13.818L73.7484 21H73.2354L69.5094 18.462V17.949L72.7494 13.143V11.307L66.2154 21H65.7024L61.9764 18.462V17.949L73.5324 0.803999H74.0454L77.7714 3.342V3.855L73.1004 10.767H74.8554ZM81.5784 0.803999L85.3044 3.342V3.855L79.5534 12.387H79.0404L75.3144 9.849V9.336L81.0654 0.803999H81.5784ZM96.6604 0.803999L100.386 3.342V3.855L95.6074 10.956H95.0944L91.3684 8.418V7.905L92.7994 5.772V3.936L87.0484 12.468H86.5354L82.8094 9.93V9.417L88.6144 0.803999H89.1274L92.8264 3.315H94.4464L96.1474 0.803999H96.6604ZM90.3964 9.336H90.9094L94.6354 11.874V12.387L88.8304 21H88.3174L84.5914 18.462H82.9984L81.2974 21H80.7844L77.0584 18.462V17.949L81.8374 10.848H82.3504L86.0764 13.386V13.899L84.6454 16.032V17.868L90.3964 9.336Z" fill="#BED1D3"/>
</svg>
