<svg width="246" height="639" viewBox="0 0 246 639" fill="none" xmlns="http://www.w3.org/2000/svg">
<g clip-path="url(#clip0_2658_96773)">
<path d="M124.75 597.348L124.75 33.9997M124.75 597.348L134.875 597.348M124.75 597.348L114.625 597.348M124.75 33.9997L134.875 33.9997M124.75 33.9997L114.625 33.9997M134.875 33.9997L145 33.9997L145 597.348L134.875 597.348M134.875 33.9997L134.875 597.348M114.625 597.348L104.5 597.348L104.5 33.9997L114.625 33.9997M114.625 597.348L114.625 33.9997" stroke="#E5C39C" stroke-width="4" stroke-linecap="round" stroke-linejoin="round"/>
<path d="M84.25 597.348L84.2501 33.9997M84.25 597.348L94.375 597.348M84.25 597.348L74.125 597.348M84.2501 33.9997L94.3751 33.9997M84.2501 33.9997L74.1251 33.9997M94.3751 33.9997L104.5 33.9997L104.5 597.348L94.375 597.348M94.3751 33.9997L94.375 597.348M74.125 597.348L64.0001 597.348L64.0001 33.9997L74.1251 33.9997M74.125 597.348L74.1251 33.9997" stroke="#E5C39C" stroke-width="4" stroke-linecap="round" stroke-linejoin="round"/>
<path d="M147 1169L147 606L62.0001 606L62 1169H147Z" fill="#E4E4E4"/>
<path d="M147.086 25.3474L147.086 -544L62.0001 -544L62 25.3474H147.086Z" fill="#E4E4E4"/>
<path d="M239.086 987.347L239.086 418L154 418L154 987.347H239.086Z" fill="#E4E4E4"/>
<path d="M55.0857 891.347L55.0858 322L-29.9999 322L-30 891.347H55.0857Z" fill="#E4E4E4"/>
<path d="M239.086 412.347L239.086 -157L154 -157L154 412.347H239.086Z" fill="#E4E4E4"/>
<path d="M55.0857 316.347L55.0858 -253L-29.9999 -253L-30 316.347H55.0857Z" fill="#E4E4E4"/>
</g>
<defs>
<clipPath id="clip0_2658_96773">
<rect width="246" height="639" fill="white"/>
</clipPath>
</defs>
</svg>
