<svg width="163" height="462" viewBox="0 0 163 462" fill="none" xmlns="http://www.w3.org/2000/svg">
<g clip-path="url(#clip0_2658_96786)">
<path d="M92.5958 386.895L92.5959 70.7685M92.5958 386.895L98.2775 386.895M92.5958 386.895L86.9141 386.895M92.5959 70.7685L98.2775 70.7685M92.5959 70.7685L86.9142 70.7685M98.2775 70.7685L103.959 70.7685L103.959 386.895L98.2775 386.895M98.2775 70.7685L98.2775 386.895M86.9141 386.895L81.2324 386.895L81.2325 70.7685L86.9142 70.7685M86.9141 386.895L86.9142 70.7685" stroke="#E5C39C" stroke-width="2.24462" stroke-linecap="round" stroke-linejoin="round"/>
<path d="M69.8695 386.895L69.8695 70.7685M69.8695 386.895L75.5512 386.895M69.8695 386.895L64.1878 386.895M69.8695 70.7685L75.5512 70.7685M69.8695 70.7685L64.1878 70.7685M75.5512 70.7685L81.2329 70.7685L81.2329 386.895L75.5512 386.895M75.5512 70.7685L75.5512 386.895M64.1878 386.895L58.5061 386.895L58.5061 70.7685L64.1878 70.7685M64.1878 386.895L64.1878 70.7685" stroke="#E5C39C" stroke-width="2.24462" stroke-linecap="round" stroke-linejoin="round"/>
<path d="M105.081 707.681L105.081 391.75L57.3824 391.75L57.3823 707.681H105.081Z" fill="#F1F1F1"/>
<path d="M105.129 65.9146L105.129 -253.578L57.3824 -253.578L57.3823 65.9146H105.129Z" fill="#F1F1F1"/>
<path d="M156.755 605.747L156.755 286.254L109.008 286.254L109.008 605.747H156.755Z" fill="#F1F1F1"/>
<path d="M53.5027 551.872L53.5027 232.379L5.75639 232.379L5.75635 551.872H53.5027Z" fill="#F1F1F1"/>
<path d="M156.755 283.083L156.755 -36.4102L109.008 -36.4102L109.008 283.083H156.755Z" fill="#F1F1F1"/>
<path d="M53.5027 229.211L53.5027 -90.2812L5.75639 -90.2812L5.75635 229.211H53.5027Z" fill="#F1F1F1"/>
</g>
<defs>
<clipPath id="clip0_2658_96786">
<rect width="162.98" height="461" fill="white" transform="translate(0.0100098 0.988281)"/>
</clipPath>
</defs>
</svg>
