<svg width="45" height="56" viewBox="0 0 45 56" fill="none" xmlns="http://www.w3.org/2000/svg">
<path fill-rule="evenodd" clip-rule="evenodd" d="M19.2292 2.65269C20.116 1.88151 21.2503 1.45312 22.4288 1.45312C23.6072 1.45312 24.7415 1.88151 25.6283 2.65269L25.6373 2.66046L25.6461 2.66834C29.6539 6.23485 35.2076 8.84198 39.3644 8.84198C40.568 8.84198 41.7148 9.32899 42.5545 10.1837C43.3929 11.0371 43.8576 12.1869 43.8576 13.3783V30.6164C43.8576 37.309 41.5331 42.4397 37.7896 46.349C34.1002 50.2018 29.1287 52.7717 23.9448 54.6109L23.9362 54.6139L23.9275 54.6169C22.951 54.9537 21.8898 54.9408 20.9223 54.5811C15.7319 52.7546 10.7611 50.1927 7.07224 46.3472C3.32447 42.4403 1 37.3089 1 30.6164V13.3783C1 12.1869 1.46463 11.0371 2.30309 10.1837C3.14277 9.32899 4.28951 8.84198 5.49313 8.84198C9.64849 8.84198 15.2265 6.21163 19.2121 2.66778L19.2206 2.66018L19.2292 2.65269Z" stroke="#113436" stroke-width="1.6" stroke-linecap="round"/>
<path d="M13.3975 29.014L20.5326 37.4759L31.6905 20.4023" stroke="#113436" stroke-width="1.6" stroke-linecap="round" stroke-linejoin="round"/>
</svg>
