<svg width="286" height="312" viewBox="0 0 286 312" fill="none" xmlns="http://www.w3.org/2000/svg">
<g clip-path="url(#clip0_1859_38561)">
<g filter="url(#filter0_f_1859_38561)">
<path d="M7.18152 228.402L48.5525 212.867" stroke="black" stroke-opacity="0.32" stroke-width="4" stroke-linecap="round" stroke-linejoin="round"/>
<path d="M19.8029 233.159L61.1738 217.625" stroke="black" stroke-opacity="0.32" stroke-width="4" stroke-linecap="round" stroke-linejoin="round"/>
<path d="M32.4249 237.921L73.7959 222.387" stroke="black" stroke-opacity="0.32" stroke-width="4" stroke-linecap="round" stroke-linejoin="round"/>
<path d="M45.0471 242.683L86.4181 227.148" stroke="black" stroke-opacity="0.32" stroke-width="4" stroke-linecap="round" stroke-linejoin="round"/>
<path d="M57.6692 247.441L99.0401 231.906" stroke="black" stroke-opacity="0.32" stroke-width="4" stroke-linecap="round" stroke-linejoin="round"/>
<path d="M70.2888 252.198L111.66 236.664" stroke="black" stroke-opacity="0.32" stroke-width="4" stroke-linecap="round" stroke-linejoin="round"/>
<path d="M82.911 256.956L124.282 241.422" stroke="black" stroke-opacity="0.32" stroke-width="4" stroke-linecap="round" stroke-linejoin="round"/>
<path d="M95.5331 261.714L136.904 246.18" stroke="black" stroke-opacity="0.32" stroke-width="4" stroke-linecap="round" stroke-linejoin="round"/>
<path d="M108.155 266.472L149.526 250.938" stroke="black" stroke-opacity="0.32" stroke-width="4" stroke-linecap="round" stroke-linejoin="round"/>
<path d="M120.776 271.237L162.147 255.703" stroke="black" stroke-opacity="0.32" stroke-width="4" stroke-linecap="round" stroke-linejoin="round"/>
<path d="M133.398 275.995L174.769 260.461" stroke="black" stroke-opacity="0.32" stroke-width="4" stroke-linecap="round" stroke-linejoin="round"/>
<path d="M146.021 280.753L187.392 265.219" stroke="black" stroke-opacity="0.32" stroke-width="4" stroke-linecap="round" stroke-linejoin="round"/>
<path d="M158.641 285.515L200.012 269.98" stroke="black" stroke-opacity="0.32" stroke-width="4" stroke-linecap="round" stroke-linejoin="round"/>
</g>
<g filter="url(#filter1_f_1859_38561)">
<path d="M53.4528 209.359L94.8237 193.824" stroke="black" stroke-opacity="0.32" stroke-width="4" stroke-linecap="round" stroke-linejoin="round"/>
<path d="M66.0741 214.116L107.445 198.582" stroke="black" stroke-opacity="0.32" stroke-width="4" stroke-linecap="round" stroke-linejoin="round"/>
<path d="M78.6962 218.878L120.067 203.344" stroke="black" stroke-opacity="0.32" stroke-width="4" stroke-linecap="round" stroke-linejoin="round"/>
<path d="M91.3184 223.64L132.689 208.105" stroke="black" stroke-opacity="0.32" stroke-width="4" stroke-linecap="round" stroke-linejoin="round"/>
<path d="M103.939 228.398L145.31 212.863" stroke="black" stroke-opacity="0.32" stroke-width="4" stroke-linecap="round" stroke-linejoin="round"/>
<path d="M116.56 233.155L157.931 217.621" stroke="black" stroke-opacity="0.32" stroke-width="4" stroke-linecap="round" stroke-linejoin="round"/>
<path d="M129.182 237.913L170.553 222.379" stroke="black" stroke-opacity="0.32" stroke-width="4" stroke-linecap="round" stroke-linejoin="round"/>
<path d="M141.804 242.671L183.175 227.137" stroke="black" stroke-opacity="0.32" stroke-width="4" stroke-linecap="round" stroke-linejoin="round"/>
<path d="M154.427 247.429L195.797 231.895" stroke="black" stroke-opacity="0.32" stroke-width="4" stroke-linecap="round" stroke-linejoin="round"/>
<path d="M167.048 252.195L208.419 236.66" stroke="black" stroke-opacity="0.32" stroke-width="4" stroke-linecap="round" stroke-linejoin="round"/>
<path d="M179.669 256.952L221.04 241.418" stroke="black" stroke-opacity="0.32" stroke-width="4" stroke-linecap="round" stroke-linejoin="round"/>
<path d="M192.292 261.71L233.663 246.176" stroke="black" stroke-opacity="0.32" stroke-width="4" stroke-linecap="round" stroke-linejoin="round"/>
<path d="M204.912 266.472L246.283 250.938" stroke="black" stroke-opacity="0.32" stroke-width="4" stroke-linecap="round" stroke-linejoin="round"/>
</g>
<path d="M273.882 175.848L143.356 236.617" stroke="#E5C39C" stroke-width="4" stroke-linecap="round" stroke-linejoin="round"/>
<path d="M273.882 212.652L143.356 273.422" stroke="#E5C39C" stroke-width="4" stroke-linecap="round" stroke-linejoin="round"/>
<path d="M264.217 217.036L263.617 182.697" stroke="#E5C39C" stroke-width="4" stroke-linecap="round" stroke-linejoin="round"/>
<path d="M254.645 221.314L254.045 186.974" stroke="#E5C39C" stroke-width="4" stroke-linecap="round" stroke-linejoin="round"/>
<path d="M245.073 225.595L244.472 191.255" stroke="#E5C39C" stroke-width="4" stroke-linecap="round" stroke-linejoin="round"/>
<path d="M235.5 229.872L234.9 195.532" stroke="#E5C39C" stroke-width="4" stroke-linecap="round" stroke-linejoin="round"/>
<path d="M225.928 234.153L225.327 199.814" stroke="#E5C39C" stroke-width="4" stroke-linecap="round" stroke-linejoin="round"/>
<path d="M216.355 238.431L215.755 204.091" stroke="#E5C39C" stroke-width="4" stroke-linecap="round" stroke-linejoin="round"/>
<path d="M206.783 242.712L206.183 208.372" stroke="#E5C39C" stroke-width="4" stroke-linecap="round" stroke-linejoin="round"/>
<path d="M197.21 246.993L196.61 212.654" stroke="#E5C39C" stroke-width="4" stroke-linecap="round" stroke-linejoin="round"/>
<path d="M187.638 251.271L187.038 216.931" stroke="#E5C39C" stroke-width="4" stroke-linecap="round" stroke-linejoin="round"/>
<path d="M178.066 255.552L177.466 221.212" stroke="#E5C39C" stroke-width="4" stroke-linecap="round" stroke-linejoin="round"/>
<path d="M168.494 259.829L167.894 225.49" stroke="#E5C39C" stroke-width="4" stroke-linecap="round" stroke-linejoin="round"/>
<path d="M158.921 264.11L158.321 229.771" stroke="#E5C39C" stroke-width="4" stroke-linecap="round" stroke-linejoin="round"/>
<path d="M149.349 268.388L148.749 234.048" stroke="#E5C39C" stroke-width="4" stroke-linecap="round" stroke-linejoin="round"/>
<path d="M269.352 214.47L268.752 180.13" stroke="#E5C39C" stroke-width="4" stroke-linecap="round" stroke-linejoin="round"/>
<path d="M259.78 218.747L259.18 184.407" stroke="#E5C39C" stroke-width="4" stroke-linecap="round" stroke-linejoin="round"/>
<path d="M250.208 223.028L249.608 188.689" stroke="#E5C39C" stroke-width="4" stroke-linecap="round" stroke-linejoin="round"/>
<path d="M240.635 227.306L240.035 192.966" stroke="#E5C39C" stroke-width="4" stroke-linecap="round" stroke-linejoin="round"/>
<path d="M231.063 231.587L230.463 197.247" stroke="#E5C39C" stroke-width="4" stroke-linecap="round" stroke-linejoin="round"/>
<path d="M221.491 235.864L220.89 201.525" stroke="#E5C39C" stroke-width="4" stroke-linecap="round" stroke-linejoin="round"/>
<path d="M211.918 240.146L211.318 205.806" stroke="#E5C39C" stroke-width="4" stroke-linecap="round" stroke-linejoin="round"/>
<path d="M202.345 244.427L201.745 210.087" stroke="#E5C39C" stroke-width="4" stroke-linecap="round" stroke-linejoin="round"/>
<path d="M192.773 248.704L192.173 214.365" stroke="#E5C39C" stroke-width="4" stroke-linecap="round" stroke-linejoin="round"/>
<path d="M183.201 252.985L182.601 218.646" stroke="#E5C39C" stroke-width="4" stroke-linecap="round" stroke-linejoin="round"/>
<path d="M173.629 257.263L173.029 222.923" stroke="#E5C39C" stroke-width="4" stroke-linecap="round" stroke-linejoin="round"/>
<path d="M164.056 261.544L163.456 227.204" stroke="#E5C39C" stroke-width="4" stroke-linecap="round" stroke-linejoin="round"/>
<path d="M154.484 265.821L153.884 231.482" stroke="#E5C39C" stroke-width="4" stroke-linecap="round" stroke-linejoin="round"/>
<path d="M187.5 211.5C187.5 217.046 183.224 221.5 178 221.5C172.776 221.5 168.5 217.046 168.5 211.5C168.5 205.954 172.776 201.5 178 201.5C183.224 201.5 187.5 205.954 187.5 211.5Z" fill="#113436" stroke="#113436"/>
<g filter="url(#filter2_f_1859_38561)">
<ellipse cx="183" cy="306" rx="18" ry="6" fill="black" fill-opacity="0.17"/>
</g>
<path fill-rule="evenodd" clip-rule="evenodd" d="M184.219 225.002C186.768 224.935 189.029 226.627 189.681 229.092L193.815 244.697L203.228 251.521C205.688 253.304 206.236 256.743 204.453 259.202C202.671 261.661 199.232 262.21 196.772 260.427L189.865 255.42V259.532L199.768 276.759C200.248 277.593 200.5 278.538 200.5 279.5V300.5C200.5 303.538 198.038 306 195 306C191.962 306 189.5 303.538 189.5 300.5V280.968L186.815 276.297L184.886 285.615C184.818 285.942 184.721 286.263 184.595 286.572L176.256 307.072C175.111 309.886 171.903 311.239 169.089 310.095C166.275 308.95 164.922 305.741 166.067 302.928L174 283.424V256.863L169.653 243.764L167.796 246.771L172.597 256.289C173.965 259.001 172.876 262.308 170.164 263.676C167.452 265.044 164.144 263.955 162.776 261.243L156.589 248.977C155.728 247.27 155.816 245.238 156.82 243.611L166.481 227.96C167.456 226.381 169.161 225.4 171.016 225.351L184.219 225.002Z" fill="#113436"/>
<path d="M137.801 53.4568L172.037 15.7969" stroke="#AEAEAE" stroke-width="4" stroke-linecap="round" stroke-linejoin="round"/>
<path d="M278.17 104.811L242.222 47.4648" stroke="#AEAEAE" stroke-width="4" stroke-linecap="round" stroke-linejoin="round"/>
<g filter="url(#filter3_i_1859_38561)">
<ellipse cx="142.937" cy="178.847" rx="8.55908" ry="2.99568" fill="#A9A9A9"/>
</g>
<path d="M142.937 0.390625L142.937 177.564" stroke="#AEAEAE" stroke-width="4" stroke-linecap="round" stroke-linejoin="round"/>
<g filter="url(#filter4_i_1859_38561)">
<ellipse cx="273.891" cy="237.047" rx="10.2709" ry="3.85158" fill="#A9A9A9"/>
</g>
<g filter="url(#filter5_i_1859_38561)">
<ellipse cx="11.9827" cy="237.047" rx="10.2709" ry="3.85158" fill="#A9A9A9"/>
</g>
<g filter="url(#filter6_i_1859_38561)">
<ellipse cx="142.937" cy="296.961" rx="10.2709" ry="3.85158" fill="#A9A9A9"/>
</g>
<path d="M10.6669 79.134L0 83.8607M10.6669 79.134L0 74.4074M10.6669 79.134L43.7343 64.4814L76.8018 49.8288L109.869 35.1762L142.937 20.5235M10.6669 79.134L43.7343 93.7867L109.869 123.092L142.937 137.745M142.937 137.745L153.604 142.471M142.937 137.745L132.27 142.471M142.937 137.745L176.004 123.092L209.071 108.439L242.139 93.7867L275.206 79.134M275.206 79.134L285.873 74.4074M275.206 79.134L285.873 83.8607M275.206 79.134L242.139 64.4814L176.004 35.1762L142.937 20.5235M142.937 20.5235L132.27 15.7969M142.937 20.5235L153.604 15.7969" stroke="#AEAEAE" stroke-width="4" stroke-linecap="round" stroke-linejoin="round"/>
<path d="M83.0222 39.1797L114.398 25.2109" stroke="#E5C39C" stroke-width="4" stroke-linecap="round" stroke-linejoin="round"/>
<path d="M92.5944 43.4609L123.97 29.4922" stroke="#E5C39C" stroke-width="4" stroke-linecap="round" stroke-linejoin="round"/>
<path d="M102.167 47.7383L133.542 33.7695" stroke="#E5C39C" stroke-width="4" stroke-linecap="round" stroke-linejoin="round"/>
<path d="M111.739 52.0195L143.115 38.0508" stroke="#E5C39C" stroke-width="4" stroke-linecap="round" stroke-linejoin="round"/>
<path d="M121.312 56.2969L152.687 42.3281" stroke="#E5C39C" stroke-width="4" stroke-linecap="round" stroke-linejoin="round"/>
<path d="M130.884 60.5781L162.26 46.6094" stroke="#E5C39C" stroke-width="4" stroke-linecap="round" stroke-linejoin="round"/>
<path d="M140.456 64.8555L171.832 50.8867" stroke="#E5C39C" stroke-width="4" stroke-linecap="round" stroke-linejoin="round"/>
<path d="M150.029 69.1367L181.405 55.168" stroke="#E5C39C" stroke-width="4" stroke-linecap="round" stroke-linejoin="round"/>
<path d="M159.601 73.414L190.977 59.4453" stroke="#E5C39C" stroke-width="4" stroke-linecap="round" stroke-linejoin="round"/>
<path d="M169.173 77.6953L200.549 63.7266" stroke="#E5C39C" stroke-width="4" stroke-linecap="round" stroke-linejoin="round"/>
<path d="M178.745 81.9765L210.121 68.0078" stroke="#E5C39C" stroke-width="4" stroke-linecap="round" stroke-linejoin="round"/>
<path d="M188.318 86.2539L219.694 72.2852" stroke="#E5C39C" stroke-width="4" stroke-linecap="round" stroke-linejoin="round"/>
<path d="M197.89 90.5351L229.266 76.5664" stroke="#E5C39C" stroke-width="4" stroke-linecap="round" stroke-linejoin="round"/>
<path d="M89.0139 40.8906L120.39 26.9219" stroke="#E5C39C" stroke-width="4" stroke-linecap="round" stroke-linejoin="round"/>
<path d="M98.5858 45.1719L129.962 31.2031" stroke="#E5C39C" stroke-width="4" stroke-linecap="round" stroke-linejoin="round"/>
<path d="M108.158 49.4492L139.534 35.4805" stroke="#E5C39C" stroke-width="4" stroke-linecap="round" stroke-linejoin="round"/>
<path d="M117.731 53.7305L149.107 39.7617" stroke="#E5C39C" stroke-width="4" stroke-linecap="round" stroke-linejoin="round"/>
<path d="M127.303 58.0078L158.679 44.0391" stroke="#E5C39C" stroke-width="4" stroke-linecap="round" stroke-linejoin="round"/>
<path d="M136.875 62.289L168.251 48.3203" stroke="#E5C39C" stroke-width="4" stroke-linecap="round" stroke-linejoin="round"/>
<path d="M146.447 66.5664L177.823 52.5977" stroke="#E5C39C" stroke-width="4" stroke-linecap="round" stroke-linejoin="round"/>
<path d="M156.02 70.8476L187.396 56.8789" stroke="#E5C39C" stroke-width="4" stroke-linecap="round" stroke-linejoin="round"/>
<path d="M165.592 75.1289L196.968 61.1602" stroke="#E5C39C" stroke-width="4" stroke-linecap="round" stroke-linejoin="round"/>
<path d="M175.164 79.4062L206.54 65.4375" stroke="#E5C39C" stroke-width="4" stroke-linecap="round" stroke-linejoin="round"/>
<path d="M184.737 83.6875L216.113 69.7188" stroke="#E5C39C" stroke-width="4" stroke-linecap="round" stroke-linejoin="round"/>
<path d="M194.31 87.9648L225.686 73.9961" stroke="#E5C39C" stroke-width="4" stroke-linecap="round" stroke-linejoin="round"/>
<path d="M203.882 92.2461L235.258 78.2773" stroke="#E5C39C" stroke-width="4" stroke-linecap="round" stroke-linejoin="round"/>
<path d="M50.498 53.7265L81.874 39.7578" stroke="#E5C39C" stroke-width="4" stroke-linecap="round" stroke-linejoin="round"/>
<path d="M60.0702 58.0078L91.4461 44.0391" stroke="#E5C39C" stroke-width="4" stroke-linecap="round" stroke-linejoin="round"/>
<path d="M69.6423 62.2851L101.018 48.3164" stroke="#E5C39C" stroke-width="4" stroke-linecap="round" stroke-linejoin="round"/>
<path d="M79.2152 66.5664L110.591 52.5977" stroke="#E5C39C" stroke-width="4" stroke-linecap="round" stroke-linejoin="round"/>
<path d="M88.7874 70.8437L120.163 56.875" stroke="#E5C39C" stroke-width="4" stroke-linecap="round" stroke-linejoin="round"/>
<path d="M98.3595 75.125L129.735 61.1562" stroke="#E5C39C" stroke-width="4" stroke-linecap="round" stroke-linejoin="round"/>
<path d="M107.932 79.4023L139.308 65.4336" stroke="#E5C39C" stroke-width="4" stroke-linecap="round" stroke-linejoin="round"/>
<path d="M117.505 83.6836L148.881 69.7148" stroke="#E5C39C" stroke-width="4" stroke-linecap="round" stroke-linejoin="round"/>
<path d="M127.077 87.9609L158.453 73.9922" stroke="#E5C39C" stroke-width="4" stroke-linecap="round" stroke-linejoin="round"/>
<path d="M136.649 92.2422L168.025 78.2734" stroke="#E5C39C" stroke-width="4" stroke-linecap="round" stroke-linejoin="round"/>
<path d="M146.221 96.5234L177.597 82.5547" stroke="#E5C39C" stroke-width="4" stroke-linecap="round" stroke-linejoin="round"/>
<path d="M155.794 100.801L187.17 86.832" stroke="#E5C39C" stroke-width="4" stroke-linecap="round" stroke-linejoin="round"/>
<path d="M165.366 105.082L196.742 91.1133" stroke="#E5C39C" stroke-width="4" stroke-linecap="round" stroke-linejoin="round"/>
<path d="M56.4895 55.4375L87.8654 41.4688" stroke="#E5C39C" stroke-width="4" stroke-linecap="round" stroke-linejoin="round"/>
<path d="M66.0616 59.7187L97.4376 45.75" stroke="#E5C39C" stroke-width="4" stroke-linecap="round" stroke-linejoin="round"/>
<path d="M75.6338 63.9961L107.01 50.0273" stroke="#E5C39C" stroke-width="4" stroke-linecap="round" stroke-linejoin="round"/>
<path d="M85.2067 68.2773L116.583 54.3086" stroke="#E5C39C" stroke-width="4" stroke-linecap="round" stroke-linejoin="round"/>
<path d="M94.7788 72.5547L126.155 58.5859" stroke="#E5C39C" stroke-width="4" stroke-linecap="round" stroke-linejoin="round"/>
<path d="M104.351 76.8359L135.727 62.8672" stroke="#E5C39C" stroke-width="4" stroke-linecap="round" stroke-linejoin="round"/>
<path d="M113.923 81.1133L145.299 67.1445" stroke="#E5C39C" stroke-width="4" stroke-linecap="round" stroke-linejoin="round"/>
<path d="M123.496 85.3945L154.872 71.4258" stroke="#E5C39C" stroke-width="4" stroke-linecap="round" stroke-linejoin="round"/>
<path d="M133.068 89.6719L164.444 75.7031" stroke="#E5C39C" stroke-width="4" stroke-linecap="round" stroke-linejoin="round"/>
<path d="M142.64 93.9531L174.016 79.9844" stroke="#E5C39C" stroke-width="4" stroke-linecap="round" stroke-linejoin="round"/>
<path d="M152.212 98.2344L183.588 84.2656" stroke="#E5C39C" stroke-width="4" stroke-linecap="round" stroke-linejoin="round"/>
<path d="M161.785 102.512L193.161 88.543" stroke="#E5C39C" stroke-width="4" stroke-linecap="round" stroke-linejoin="round"/>
<path d="M171.358 106.793L202.733 92.8242" stroke="#E5C39C" stroke-width="4" stroke-linecap="round" stroke-linejoin="round"/>
<path d="M10.6669 66.2942L0 71.0209M10.6669 66.2942L0 61.5675M10.6669 66.2942L43.7343 51.6416M10.6669 66.2942L43.7343 80.9468L109.869 110.252L142.937 124.905M142.937 124.905L153.604 129.631M142.937 124.905L132.27 129.631M142.937 124.905L176.004 110.252M275.206 66.2942L142.937 7.68369M275.206 66.2942L285.873 61.5675M275.206 66.2942L285.873 71.0209M275.206 66.2942L242.139 80.9468M142.937 7.68369L132.27 2.95703M142.937 7.68369L153.604 2.95703M142.937 7.68369L109.869 22.3363M209.071 95.5995L76.8018 36.9889M209.071 95.5995L176.004 110.252M209.071 95.5995L242.139 80.9468M76.8018 36.9889L43.7343 51.6416M76.8018 36.9889L109.869 22.3363M43.7343 51.6416L176.004 110.252M242.139 80.9468L109.869 22.3363" stroke="#113436" stroke-width="4" stroke-linecap="round" stroke-linejoin="round"/>
<path d="M11.9827 59.4453L11.9827 235.762" stroke="#113436" stroke-width="4" stroke-linecap="round" stroke-linejoin="round"/>
<path d="M273.891 59.4453L273.891 235.762" stroke="#113436" stroke-width="4" stroke-linecap="round" stroke-linejoin="round"/>
<path d="M142.937 119.359L142.937 296.532" stroke="#113436" stroke-width="4" stroke-linecap="round" stroke-linejoin="round"/>
<path d="M6.84729 113.367L41.0836 75.707" stroke="#AEAEAE" stroke-width="4" stroke-linecap="round" stroke-linejoin="round"/>
<path d="M147.216 164.725L111.268 106.523" stroke="#AEAEAE" stroke-width="4" stroke-linecap="round" stroke-linejoin="round"/>
<g filter="url(#filter7_f_1859_38561)">
<path d="M276.841 234.725L268.827 231.789" stroke="black" stroke-opacity="0.32" stroke-width="4" stroke-linecap="round" stroke-linejoin="round"/>
<path d="M266.096 240.166L258.082 237.23" stroke="black" stroke-opacity="0.32" stroke-width="4" stroke-linecap="round" stroke-linejoin="round"/>
<path d="M255.352 245.616L247.337 242.68" stroke="black" stroke-opacity="0.32" stroke-width="4" stroke-linecap="round" stroke-linejoin="round"/>
<path d="M244.608 251.053L236.593 248.117" stroke="black" stroke-opacity="0.32" stroke-width="4" stroke-linecap="round" stroke-linejoin="round"/>
<path d="M233.865 256.498L225.85 253.562" stroke="black" stroke-opacity="0.32" stroke-width="4" stroke-linecap="round" stroke-linejoin="round"/>
<path d="M223.121 261.936L215.106 259" stroke="black" stroke-opacity="0.32" stroke-width="4" stroke-linecap="round" stroke-linejoin="round"/>
<path d="M212.376 267.381L204.361 264.445" stroke="black" stroke-opacity="0.32" stroke-width="4" stroke-linecap="round" stroke-linejoin="round"/>
<path d="M201.631 272.815L193.616 269.879" stroke="black" stroke-opacity="0.32" stroke-width="4" stroke-linecap="round" stroke-linejoin="round"/>
<path d="M190.887 278.264L182.872 275.328" stroke="black" stroke-opacity="0.32" stroke-width="4" stroke-linecap="round" stroke-linejoin="round"/>
<path d="M180.143 283.706L172.128 280.77" stroke="black" stroke-opacity="0.32" stroke-width="4" stroke-linecap="round" stroke-linejoin="round"/>
<path d="M169.398 289.147L161.384 286.211" stroke="black" stroke-opacity="0.32" stroke-width="4" stroke-linecap="round" stroke-linejoin="round"/>
<path d="M158.655 294.588L150.64 291.652" stroke="black" stroke-opacity="0.32" stroke-width="4" stroke-linecap="round" stroke-linejoin="round"/>
</g>
</g>
<defs>
<filter id="filter0_f_1859_38561" x="-6.81897" y="198.867" width="220.832" height="100.648" filterUnits="userSpaceOnUse" color-interpolation-filters="sRGB">
<feFlood flood-opacity="0" result="BackgroundImageFix"/>
<feBlend mode="normal" in="SourceGraphic" in2="BackgroundImageFix" result="shape"/>
<feGaussianBlur stdDeviation="6" result="effect1_foregroundBlur_1859_38561"/>
</filter>
<filter id="filter1_f_1859_38561" x="39.4523" y="179.824" width="220.832" height="100.648" filterUnits="userSpaceOnUse" color-interpolation-filters="sRGB">
<feFlood flood-opacity="0" result="BackgroundImageFix"/>
<feBlend mode="normal" in="SourceGraphic" in2="BackgroundImageFix" result="shape"/>
<feGaussianBlur stdDeviation="6" result="effect1_foregroundBlur_1859_38561"/>
</filter>
<filter id="filter2_f_1859_38561" x="159" y="294" width="48" height="24" filterUnits="userSpaceOnUse" color-interpolation-filters="sRGB">
<feFlood flood-opacity="0" result="BackgroundImageFix"/>
<feBlend mode="normal" in="SourceGraphic" in2="BackgroundImageFix" result="shape"/>
<feGaussianBlur stdDeviation="3" result="effect1_foregroundBlur_1859_38561"/>
</filter>
<filter id="filter3_i_1859_38561" x="134.377" y="175.852" width="17.1182" height="5.99219" filterUnits="userSpaceOnUse" color-interpolation-filters="sRGB">
<feFlood flood-opacity="0" result="BackgroundImageFix"/>
<feBlend mode="normal" in="SourceGraphic" in2="BackgroundImageFix" result="shape"/>
<feColorMatrix in="SourceAlpha" type="matrix" values="0 0 0 0 0 0 0 0 0 0 0 0 0 0 0 0 0 0 127 0" result="hardAlpha"/>
<feOffset dy="3"/>
<feComposite in2="hardAlpha" operator="arithmetic" k2="-1" k3="1"/>
<feColorMatrix type="matrix" values="0 0 0 0 0 0 0 0 0 0 0 0 0 0 0 0 0 0 0.25 0"/>
<feBlend mode="normal" in2="shape" result="effect1_innerShadow_1859_38561"/>
</filter>
<filter id="filter4_i_1859_38561" x="263.62" y="233.195" width="20.5417" height="7.70312" filterUnits="userSpaceOnUse" color-interpolation-filters="sRGB">
<feFlood flood-opacity="0" result="BackgroundImageFix"/>
<feBlend mode="normal" in="SourceGraphic" in2="BackgroundImageFix" result="shape"/>
<feColorMatrix in="SourceAlpha" type="matrix" values="0 0 0 0 0 0 0 0 0 0 0 0 0 0 0 0 0 0 127 0" result="hardAlpha"/>
<feOffset dy="3"/>
<feComposite in2="hardAlpha" operator="arithmetic" k2="-1" k3="1"/>
<feColorMatrix type="matrix" values="0 0 0 0 0 0 0 0 0 0 0 0 0 0 0 0 0 0 0.25 0"/>
<feBlend mode="normal" in2="shape" result="effect1_innerShadow_1859_38561"/>
</filter>
<filter id="filter5_i_1859_38561" x="1.71179" y="233.195" width="20.5417" height="7.70312" filterUnits="userSpaceOnUse" color-interpolation-filters="sRGB">
<feFlood flood-opacity="0" result="BackgroundImageFix"/>
<feBlend mode="normal" in="SourceGraphic" in2="BackgroundImageFix" result="shape"/>
<feColorMatrix in="SourceAlpha" type="matrix" values="0 0 0 0 0 0 0 0 0 0 0 0 0 0 0 0 0 0 127 0" result="hardAlpha"/>
<feOffset dy="3"/>
<feComposite in2="hardAlpha" operator="arithmetic" k2="-1" k3="1"/>
<feColorMatrix type="matrix" values="0 0 0 0 0 0 0 0 0 0 0 0 0 0 0 0 0 0 0.25 0"/>
<feBlend mode="normal" in2="shape" result="effect1_innerShadow_1859_38561"/>
</filter>
<filter id="filter6_i_1859_38561" x="132.666" y="293.109" width="20.5417" height="7.70312" filterUnits="userSpaceOnUse" color-interpolation-filters="sRGB">
<feFlood flood-opacity="0" result="BackgroundImageFix"/>
<feBlend mode="normal" in="SourceGraphic" in2="BackgroundImageFix" result="shape"/>
<feColorMatrix in="SourceAlpha" type="matrix" values="0 0 0 0 0 0 0 0 0 0 0 0 0 0 0 0 0 0 127 0" result="hardAlpha"/>
<feOffset dy="3"/>
<feComposite in2="hardAlpha" operator="arithmetic" k2="-1" k3="1"/>
<feColorMatrix type="matrix" values="0 0 0 0 0 0 0 0 0 0 0 0 0 0 0 0 0 0 0.25 0"/>
<feBlend mode="normal" in2="shape" result="effect1_innerShadow_1859_38561"/>
</filter>
<filter id="filter7_f_1859_38561" x="137.64" y="218.789" width="152.202" height="88.8008" filterUnits="userSpaceOnUse" color-interpolation-filters="sRGB">
<feFlood flood-opacity="0" result="BackgroundImageFix"/>
<feBlend mode="normal" in="SourceGraphic" in2="BackgroundImageFix" result="shape"/>
<feGaussianBlur stdDeviation="5.5" result="effect1_foregroundBlur_1859_38561"/>
</filter>
<clipPath id="clip0_1859_38561">
<rect width="285.873" height="311.609" fill="white" transform="translate(0 0.390625)"/>
</clipPath>
</defs>
</svg>
